<mxfile host="app.diagrams.net" agent="Mozilla/5.0 (Windows NT 10.0; Win64; x64; rv:144.0) Gecko/20100101 Firefox/144.0" version="28.2.7">
  <diagram name="Page-1" id="dMxvzxXiLsHBvZrjk_1k">
    <mxGraphModel dx="4852" dy="1340" grid="1" gridSize="10" guides="1" tooltips="1" connect="1" arrows="1" fold="1" page="1" pageScale="1" pageWidth="827" pageHeight="1169" math="0" shadow="0">
      <root>
        <mxCell id="0" />
        <mxCell id="1" parent="0" />
        <mxCell id="QCXTudB9rJTe6QyoqShM-47" value="&lt;div&gt;...&lt;/div&gt;" style="ellipse;whiteSpace=wrap;html=1;opacity=20;" vertex="1" parent="1">
          <mxGeometry x="-1380" y="790" width="200" height="100" as="geometry" />
        </mxCell>
        <mxCell id="QCXTudB9rJTe6QyoqShM-48" value="&lt;div&gt;...&lt;/div&gt;" style="ellipse;whiteSpace=wrap;html=1;opacity=20;" vertex="1" parent="1">
          <mxGeometry x="-1300" y="790" width="200" height="100" as="geometry" />
        </mxCell>
        <mxCell id="QCXTudB9rJTe6QyoqShM-24" value="..." style="ellipse;whiteSpace=wrap;html=1;opacity=20;" vertex="1" parent="1">
          <mxGeometry x="-1479.25" y="1185" width="200" height="80" as="geometry" />
        </mxCell>
        <mxCell id="QCXTudB9rJTe6QyoqShM-23" value="..." style="ellipse;whiteSpace=wrap;html=1;opacity=40;" vertex="1" parent="1">
          <mxGeometry x="-1479.25" y="1165" width="200" height="80" as="geometry" />
        </mxCell>
        <mxCell id="yT0dor_68AKdngcypEvZ-29" value="HookID: prefix_hook_classname&lt;br&gt;&lt;br&gt;Hashmap&lt;div&gt;&lt;br&gt;&lt;/div&gt;" style="rounded=1;whiteSpace=wrap;html=1;opacity=30;" parent="1" vertex="1">
          <mxGeometry x="-624" y="540" width="200" height="90" as="geometry" />
        </mxCell>
        <mxCell id="yT0dor_68AKdngcypEvZ-31" value="HookID: prefix_hook_classname&lt;br&gt;&lt;br&gt;Hashmap&lt;div&gt;&lt;br&gt;&lt;/div&gt;" style="rounded=1;whiteSpace=wrap;html=1;opacity=30;" parent="1" vertex="1">
          <mxGeometry x="-399" y="540" width="200" height="90" as="geometry" />
        </mxCell>
        <mxCell id="yT0dor_68AKdngcypEvZ-25" style="edgeStyle=orthogonalEdgeStyle;rounded=0;orthogonalLoop=1;jettySize=auto;html=1;exitX=0.5;exitY=1;exitDx=0;exitDy=0;" parent="1" source="4xqQoK-wmyRuvjZb2HE3-1" target="yT0dor_68AKdngcypEvZ-4" edge="1">
          <mxGeometry relative="1" as="geometry" />
        </mxCell>
        <mxCell id="yT0dor_68AKdngcypEvZ-26" style="edgeStyle=orthogonalEdgeStyle;rounded=0;orthogonalLoop=1;jettySize=auto;html=1;exitX=0.5;exitY=1;exitDx=0;exitDy=0;entryX=0.5;entryY=0;entryDx=0;entryDy=0;" parent="1" source="4xqQoK-wmyRuvjZb2HE3-1" target="4xqQoK-wmyRuvjZb2HE3-2" edge="1">
          <mxGeometry relative="1" as="geometry" />
        </mxCell>
        <mxCell id="yT0dor_68AKdngcypEvZ-30" style="edgeStyle=orthogonalEdgeStyle;rounded=0;orthogonalLoop=1;jettySize=auto;html=1;exitX=0.5;exitY=1;exitDx=0;exitDy=0;entryX=0.5;entryY=0;entryDx=0;entryDy=0;" parent="1" source="4xqQoK-wmyRuvjZb2HE3-1" target="yT0dor_68AKdngcypEvZ-29" edge="1">
          <mxGeometry relative="1" as="geometry" />
        </mxCell>
        <mxCell id="yT0dor_68AKdngcypEvZ-32" style="edgeStyle=orthogonalEdgeStyle;rounded=0;orthogonalLoop=1;jettySize=auto;html=1;exitX=0.5;exitY=1;exitDx=0;exitDy=0;" parent="1" source="4xqQoK-wmyRuvjZb2HE3-1" target="yT0dor_68AKdngcypEvZ-31" edge="1">
          <mxGeometry relative="1" as="geometry" />
        </mxCell>
        <mxCell id="4xqQoK-wmyRuvjZb2HE3-1" value="" style="shape=image;verticalLabelPosition=bottom;labelBackgroundColor=default;verticalAlign=top;aspect=fixed;imageAspect=0;image=data:image/webp,UklGRgQ5AABXRUJQVlA4WAoAAAAQAAAA/wEA/wEAQUxQSBAWAAAB8Idt23Ir2fbtx3FcY9AgZSt2B3Z3920hxg0WYStht1iP3YrYdXMLGNw8Una3lIEg3Y3AjHGe5/7HHPO6JpMxrzF4nud9R0RMAMr+L/u/7P+y/8v+L/u/7P+y/8v+L/u/7P+y/8v+L/u/7P+y/8v+L/u/7P+y/8v+Ly/bZC2fQmRtnijO3gey9k4Ft3JcW8jaOkOzN1nBp6ApTcy0tGPo8AMrOWpDSCpTAQDREk6Ew+aymk8Y0rkCWx534o4KLdWIoqfz3l0KlVRm2OODStJ9czS0NKOwx1jNeUfCBGlc0a2a9J7kndBSjKHdcFbx561gSOWKC+kdSTrHu6ANiohKERBhl99ZxUEtYEjlit0r6Jk3OP4DWuBEVC2vojgUwylLWc1+EEXBVRVpACAf0bFWz4nrQAqOiKpFZqqChI1bb7Dj+mlPFdfRcdU5MEHhFosiM1MVESk4irPoGTPHG2AFQERUzaLIFEmz7Tbd+YATz+99b//BI7/+bcZi3gpLdYZGr7KKU/eCoQC3PXCnTddpmhUkVsuvKlIAgE/iBU5shjVTRNXyI6FkW2++++GnX9z3vgFDPh0zafbiasZ1fDrdGTb5kpX8dAMYCq/hNFasWDJn0o8fvfPKo7dd1fUfh3bccqO2zRSJRVQtisxUReqfYlcm9DwJWm9E1SwyUxHEj1quv3nHI87sedNDA97++Ke/lqxyrOOqJTPm35PqIuw/k9V8IQtDAY7QjY5J3bJZE3/+fPi/n3vo1ivOO+6Ajltt0EKRXNSiyMxURWT1Ga6ji+fYH7YaRFTVLIpUkFBabLz93kec1vP6B18d9uXYKYtyrGu/dPqv3456u/+9V3c9fv+dO7SOkOLF0LWCPvSBKgqx4fSJv81dXuFiJc79vWDGn+O/GvbGk/16XXjG0fvusHGrJobkavlVRepA8N/08TzHRYgvomp5FQmzzdfffv8Tzrv8lodeHfbVHzMWrWId+4rlsyd8+Z/Xnrz7mvNO3H+bjVo3QpGogvuZ45ITYIJCLdlm7bboeMhJ515y/X3P/uuDrydMnr24wsdJHKpWLp427ssPBg546JYr/nnywbtstXHbpobEImoWRWaqIoKmMxnikRUdYKoWRaYqSNio9Sbb7ndi1179nvnX8G/+mLeiKrCOKxbO+P2roS8/dFPPzsfsvXX7phESquVVFUlxhlbvspITdkCEBjTTZpMd9jjw5K5X3fboy+999O34KQsqYtWhWzrrj1++GfHm0/f07XbG0fvvuuV6zQQJFdtXMvmRUMTMtNui48Endu19b//Bo7/7dfrywLqumDfp50+HvvTgDd1OPWzvHTZsoUgoFkVmqiqC4tCw7ThWcmgrGAq7iKpZFJmqCBJnW63XYds9jzqz27V3P/bi4NHf/zFveYWLlbh6+fzpf4755N2XH7mjT/ezjt1/x41aNsfhDEkcu6PDzoedcn6ffs8MGv3zlLnLcqzj6hVLpv306XsDHrq5e6cjd+6wbnNFfBE1i8xUBMWnRDhuCav5AKBoWEVU1fIrkmearbv17oeefF7Pa+995l/Dv53w58xFq0Kc5NWrFk398TfW4dJFq3KsY7d09pQxH7/T/56+559y8C6btmwkiC+WX1VQ3IriquBC1UUwQcMuIqpqFkWRKeow03rj7fY45OSuV9/x8PNDRn09bsqCynj5g8vlnHPee+9cLucCk66a9fsPowYN6NfrguMO6LhZu8ZIKhZFZqoigqJZkXmW1Zx1CAypU0TVLDJTFUHiTMt1N91+vyNPv6jP3U+++t4nv0yau3RljnVZuXze798Of/2pfld1PXGfbTZp00QQX1TNIlMVQXFuWP8jVvGbDjCkXhFVq1WRWDJN2m3R8ZCTzr3s5gcHDBr1wzdDX37oxh6dTzhguw2aGhKq5VUVQfEfYY/JrOLrTWBI3SKiqmZRFKlgdYtGkZmpiqCkKIazVjLHm6CKIlA0ymazGs+ymYwJSpYquIM5Lj8VJigCTVEzWm/r3Q46+sRjj953581bK2qalSgMzd9mJSfuAkP6FwOQ7Xj+o6MmzKtmrStn/PxuvzO2EQAmJYgIW/7ESo5oB0PqFwWanzJgkmPeELz3PjB/xZhHjmgMqJQYxHDEfOb4uEGR+lWw+X0zSdI57wNjBu+cJ8mJt24E0SJOLDKTeKK4JBd87hKoIPUr1nlgJRlcYB37XCCX3d8GVqyJIq/GUdjjrOb8wxEh/SsOmsLgAlerd4EzToAWZyLYpvdzT5zXFlqboe0IVvKnLWBI/4ozqukCV3twZG9oMSZo/lgVSc7rBs1n2GUiKzmwKQzpX7F3BT3rpXfsAS2+BO2+onfO+cAnIQDEcNrfzPEOiKIoHMlqhtp9Yhe7OizbDFJ0IfMxq1kz5NgPBhXcSMcVnWGCAi6iahZJ4VPswHrs+CCs2FLczxxr9TwBGTR5jVWcshciFFoRVcsraEAVh1cvXLRwzpzZ06ZN/XPSHxN+HffzLz9++91Xn3/xxccfffTRiOHDhw99//33Bw8aPOit19+9HpIexCIzU5HCptgtx5ie4xqhw9es4ifrw1AIRVQtMlMVJGzcev3tDjipS58tIIUOyLZv06ZNq1atmjdv1qRp42yjjEUqgrQtGkWRmaqISIF5gy4GHTvvNJdV7J+FYg0VEVWzKDJB0sbtt9j1gBMv6HPv84NHfvXbrOWB9DwNVog0MpEYq1NERGuaWs0oiiyGiEUqDZjgsNu7nX3KkXttu2EzQ3KxWlVF1ijBVn8z4bRFdLwGqqjHIqKWV5FQsi033/XgUy/oe9/z73w2dtKc5Z5JHXsiKjhqKKimDZbhITqSvmLZvD9/+OidVx6/q8/FZx619zYbt2+RQWJRVbPITFWkfhn60CWg46LjYILVLapmkZmKIH6m5Xqb7XZkp543PfTiO5+MmbFoRTXruHLJnL9+GvXWywdAC4wq0HTfq54aPPzD0Wv4hyOGPNf3kJaAaIP1ap46XDX/r7FfjRzy4kO3XHHeCYfus+Nm7ZugDsWiKDJTVRFZLYIP6RN4jt8WhroUUVWzyFSQtMWGW+95xFmX3vLY68O+GDtlcY517ZfN/v2HD//11J1XnnvcATtvuo6iECuw82NTWUBnDzgA0IZJ0enZFwaP/GbCjKUVuXiJq5bO+WvCl8PeeOruvt07H3/grpu3bRIhuVqtqiKxBOstYogX+GcbGPKLqFpeQcKo2QY77H/8uZff9vgbw7+bMG3BisC6DVV/zxz/xX9ef/L2K845Zs/tNm3fGAlFTQqMYos3q0i6nHN+zXc5F8jwwa5QaYhqzzRrvclO+x93Vvfetz/2ynufjpk8e9EKFytx9cqlc37/bvTglx7r1/fiM47Yd7uN2jWPkFhEzaLILIP9mNTz12wURaYqiC9N2m68zV7Hdrni9qffGv7txPnLKwPr1q9YMH3i9/95/YmbL+l8zN5btWueQUK1vKoiKLyi6Pk3gwssoMF5Vt8mIg2SRqaoQ2u14Ta7H3z82Zfe+MDzg0Z+8fPE2ctcrORhxdxJY74cMWjAAzddes7xh+y53SatM4hp6EqfgFyxBQR5M2033fmAE8/vfW//wR9+/8fslazzyoVTxnw19KUHru926uF7brN+EyQVi8xMVUVQ2AWZl+gdC65zHLYOtCGqVURUzaLITEWQWJu122Sb3Q8/7cJedz7+8pDR3/42a9nK6hAncVi1aNaksZ8Pfe2Jfr0v7nTswRs/QJeIPU/o1ve+AUM+HTNp9uJq1rGvWDT5x9GDBvzXdRefevBOW2zQypBQ1KLITEUEDWn0HnOBBTjk+G1rSMOVXERUrVZB4myzdTbaYb9jz+p27d1PvfGfL8ZPnrlwpY+TvCrHkCQE1nFu+ZwpP48e+Ey/Xt1PO2yPDq0aK+KL5VcRNNSCV5ljgc7xwyzSq4iqmlkUmaIOtdVG2+5x8DGdelx/f/9Bo78Z99e8FSHWavZLp//6zai3+993TdcTD+y4ZZsMkmoUmZmqiCAFGq5jjgU7x6egqSW5iKpZFJmqCBJHLdbddJuOh516Ya+7nnjh3yO+njBr1ZLlcVYsqVj4x9cj3nry7mvOO2nfrTdq3QgJRdWiyFRFkDYVe+ZYyD1PhqalxCKqavkVyTPNM8f/ypAvcNJp2RZZJFTLqyqClDuSvrCNbYriUERU1cyiyFQgOPdvxl55KQDRKDJTVRGkZsUJ9Czojj1hRUFSw+kMLsR0nr1hSOOCoXSFzfMHQfEpaD6ZgQlzO0NTmGDzVSz8+0GLDsVeUydOSvj7gm6wFGY4n67QOd6GqOgAomZ12BhpXPFMQzAMUkyIRqZqgro0VVWLTNKU4Av6Qhc4OYviUQz1Uiw9wSYzFL5l7SHFggqaH9n30edW69P9umwJqKSmFjMLH7lqi6JBseF9s1gPq0afBNF0JGgzpyGo2q5YUHRdSIZczq3enCc5ZANoKWHbIkHwIIMLrI/OccoO0LVNinuYC6yvOU7tAFm7ZDiDjvU4x9GKtUqCFn/S1yfm2AO2NslwGR3rteeELNYmAV/R1y8GngBbeyTYcgXru+MDa5MMx9PXN8/RkLVJXejq33ik35JKj/oXOPH/+feniKZdQ7u5pSvPP5B+Ba1mNwQV2xUFPetf4LQddtgx7e607f4LCp9n5dapTyyLi+pfydAH9oUg1ZsCgn6lGs8VZ0CQ4sUArN/1reks0TrO3hcR0rsY0OSkIctYss3xl81hSO8maHvdZJLehdJMjsNawZDaVdH6tkWkd4Gl2eD4jEGR2hX45ywG51mqDYHXQwWp3dBhBOkCS7aeFZ0RCVK74bSFdIGlW8d5B8GQ3hU3k44lXMdx28KQ3gVP0gXm9845nye4/H5NCq72UAfe1e6TBVd7SBZczGTe1eobnBxHtoYhvSv6M8e8wbGwBsYNiQLjhiSBcUOSwLghSWDM0LAExxcNivRu+C/mmNcHVn//3LWdn2Zg4Mvn9ejWrVvPc/szrCmBk97K/+aguUw+6pabat58490TGOIF/vFW/jcHz2fCwMl39OqT95pXqxN9O+idIUOGDHln0Be+QQmBt0AF6d3QjZ55PRfdt53A0Imenl1gAAxn0a0hnu83Rn7BRmMZYnk+DEGtzb6mj+M5MIv8gg5/MMQJnLgeBHkVFzHECbwSgryCLg2JZ3UXmCC9K/asYMjjOWhDAJbFOXkuRNbMGuGcNYZhV2Qsfxad6OMEruiAjOXPohNdHFZuh4zlz+J8ujiON6KR5Y/Q+HeG2jy/hESWNzIMpWsoHOcfigipPvMdPWsGXg0xBQyd85wPA2DovKYEzt8AgvyKfRk7cF4z1K44lD5G4MzWqF1xOGN7doch5pf0tTm+igi1RniswXD8fVsY0rzhBjrWDOwCU6CgLIi3X5L5zWMYDkkwqw2k7nrG+zre67A4jzYUjp+2hyHNC7ZcwlDD8xpEyFtI1l8tzVZH61iHJemRKoLjK1koUr3hGTqS9HwDhro6t1QRPO+EClK9YPPlrBk4Z31IoovQyMyyuLtE4Vl9EUyQ7g396Gp4Xg5Doi4wQLDrUoZShOOSoxAh5QuaT2YgGfh7M8TMF/hi54svvOiC+xdzTS1yHP/cCRHSvuF0BpJ07AtLFDeUInL8fD0YUr/idboaXNEBUgc+V9MFlh6C41uNoSgCW85mIOk4DII6WOMDF2ywWprH0GRtYh2epGcqCJ73QxTp33AUA/P0gRWkefH2TTKvWaxDE8yMd2iSHvG+jPdqw+Hpe8AERcFtdDUC94UWILJia2QtfyMczxCHXLUVMlH+LP5JF2tZB2QtfyP8gz6O4z3IWP4IzacyxBmKTGT5G+HlQua49HgYikLFKHqSgUs3RWQxszinQHg+AEHtQ+ljeb6IWgXtx9HHoOddUNRqI+MFLtwDgryCfvSMW7UvFHkF2y9mKFiOUzoiQlEoaDmVIc/EJoht6FQgSL57Rf7Le33BwKQ/PvZI3of7z2DiQZdfkffy3t8yMOHyQf0H5O3/LeMHzr/roh7du3fv3uPim2cysFDn+M2GMBSHih0dawbOPPPkf5wS87SjHmQoEIFxA5MGxg1JAuMGJgyBMUM8MrAhdBzUFIqi4Vj6GgXdxfRM7nO1ByZ2MT2Tu5zLm/NM5HytLhSq4PkQRFEsGnrR1eKdj+1C4SgyfeBVMEHRGOHZGKVRxxWnIUIRqRhSWnGcticMxeXn9CWUHH/YFIbistFvDKWTHN9vCUNRKWg1u3QSHJ+EKIqN9stZKvWBfaCComPTXKnEs+JMGIpOxQ4skTrO3g8RipGOJZIcx24JQ1Gyd2nE8b/XgaE4ObAUEhyfMyiKlENKID7wRqigWDm09OFZeS5MsNbOcd4hiFC0Kg4rdeQ4fmsYipnDSxw5jmoNw1q74PhyFoq1dsHzNqigyNmvhOFZ1RUmKG4Fm1WXLBwXHI4IxW92PENpwvGP7RGh+DU8TleSyPHTdWEoghV7eZYgg+OrGSiKYsVrzJUcgmc/iKA4Fmwyk67E4Ol7wATFsuLQVXQlBcclRyNCEW04fD69CyUDx0k7wVBUGzYfRjK4Ok7iXfoPJEMMlzzHzzeAochWweGDFrA0GDiwCRRFtwjQ5qBOF/eow+5XTGegD3m848DLr+ub7q+76hdy4Zd0NTwr7rvm2r6x+9xwYQRFMW6KOv+OjrU7XoQI6V7xBjnx6Xzkii0gSCqCIl3U6jLSzJuLWDlmSo3cr2OmnYaspfsMBpKT+82bQbJ68rQJmyFjSVFqVOwRuP0eZOCMZigCFW+Ri9bBfgwci8hQAlUM5PN715jZAlIstMTe9ByD0qjiAP7dq4qB05tCi4GB5OLWtUhJBIJ3+VeNxbtAJe1JhDfIRS2xDwPHoESqOJQkXS5UDWgNSXcCO+53suo47ENfOoFiFHOBpOeP7SBpTrDRh/TOOQ441JFjEJVGBJvPJytGDxzPKr6V6gRtxzNHkp5/VZHjAC2JGB4jFx0Ewb10YS9oelM8xyq+e+Gln9ORpPvmbEgpBI0mkN2RiYDPyJthqU3Q4W/yFigwgDlPMvC1qAQiWH85/94Kigg3ka+nOEMn8rcsokwN5hZ5VvFJaGmkckcYMuhHvpbqribfhhqOouegHdt2/ICO+0FLHYB8T94CEzSeQF6V6i4iv4Zl8CI5ChBkvyIfg5U8DLfQVV2awcbvMKzcBpLaFDv7wFNhGEN2QkayuIj8GKVPQZuJrOb0n5ezivdBkeY/oF9x7bZ7ziUPhsJwGvl9CQSC3ecwkAx8y5DmBR2XM0fnfY43IZvJ4EFyMKT0AcXGr65k4JRLBelecfh8BpKei/eB4YgKz56wEggE2PCYM/ZpCk15UKx/74Sli7+Zx/D3gN6vVnpObgEphUAUNQ2pXwFt3xanBXqSnlVHQlEiFTVFMSgGQHHcNAYG/nYgFGvfRaBo2eXZfz99ZlMo1tIr8opirb2YiRnK/i/7v+z/sv/L/i/7v+z/sv/L/i/7v+z/sv/L/i/7v+z/sv/L/i/7v+z/sv/L/i8jG1ZQOCDOIgAAMLsAnQEqAAIAAjwCFRmLgAAAlnbuAz54ZoF4A/QCR9vkf9f/Hr9//Neh10/+7/tT/if24+danfzz8J/vJ/lfwtn/sAeZ15d+W/2P+3fuN/WP///+PuF/Vv7t/d/2o/p30O/LH+G9wD9Iv61/b/27/q//////1SerL+jf33/nf2L/Y/AD+Wfzn/J/2T99Pmq/rf+N/uHuK+mb5AP5J/av9/+f/eAftz7AH8i/t//i9mP/E/8H/O/vr9D/7Hf+P/Nfvz9Cn88/sX/V/P35APQA/f/3MP4B+//v79J/7T/QP1677/7t/Uv69/m+vw8+e23yMeGfeB6V8xf5d9ZfsX9a/d/4x/tv9n/K3+h/sV7N/GH+N9QX8T/jH9n/MX+/+a19kHlLaF/kv9F/UfYI9OPkH9z/nP95/y3+F+XT3z/ff071a+u3+A9wH+S/zL/d/zL+1++P9v/ULyb/qP+N/Uz4Av4t/Pv+j/qvyI+IL92/vH7c/3D//+9/80/r//C/x/7zf6P7B/4//K/8z/cf8T/5f9b///+j9wHrd/X32FP1Y/5357yIh+rn2wU2w6mQqljQhzpkKpY0Ic6ZCqWNCHOmQq0mCOIQfh4HIbhmGIXhYFQThMEcQg/DwOQ3DMMQvCwKgnCYI4hB+HhMDvr3GXqsygHfXuMvVZlAO+v8b69xl6rMoB317jL1WZQDvr3b9vcZeqzKAd9e4y9VmUA769x0xy9VmUA769xl6rMoB317jL1gDvVZlAO+vcZeqzKAd9e4y9Vs/VWZQDvr3GXqsygHfXuMvVZplDCHfXuMvVZlAO+vcZeqzKAg+nevcZeqzKAd9e4y9VmUA76/xvr3GXqsiGKkHqsygHfXuMvVZlM9EUA768hpPR2uECNyFyw3OKcvMMSTyih9Wnu2oNftE1PWyrosjFH2RGu7p6aEFWfqNpdFxGEIDhkBAfxnCHUsCakf06cd4vaG6jG7tkLV0gws35kl7jLzYBLwce3e2WN98YLo29O2eQMyqiEJGmIdHlyq/k1PJVp8Mu/MYitOeivnZOG3idCGG/ngsN3Jgd9d4BcrpKLJBR2PPImDu4nbTMdNAYmXfdIUW1QV1I8lcuYx9CRKReaS4D6p/QsMkqOHFtyhUyH6yuBHon5mR2ck8Ic7Vzm6dVaqkfCWDEWDgVgEWu7hveimktcigVVZH4JsQ6s0I+KUih50l0GLzpmFXvE6uFekfNmXEx0FMu4uGx/4TtFBA8H/W8yVgeLD6lifMjBQWd1FVEUzvvltFpZi3IuIYm6AWVheoHq5w/x2Us/fgNO9iG2R/eE2n+HY0x+q0d/Q71nc5EIKQOXqsVRIo4hhEH071JV7JKGLtP3YI4C3A35PQtGbAENnBHXjmjVmGFbB8/rchdLAcXKWWZOV4HCVIy+OA6pArcpkIjTZZzTY1E6F9Vvjfh/geP0ZtWBqji/6/svtCEmc9Mr1RE/4cB8kjCpD7VZlM9EJ+gerpLA3PAQxZ1TFFlltvNkMEp7kcRQFbruPF5vYMUaYeV0b1YQvGlKLvQgGwD5XNgXfYwh33YHeYDWbdiqIoB317jL0IB3tzEBoIv+XqsymeiE+1Ifwzp/QPLS0rEIO9FH/LYh+yNiON7UNcjR8b2oa5Gj43tQ1yNHxvahrkaPi7uwVQHY3Lf4/8RFFlerOQW+vcZfHAdinOVzFKBh46RgFjBpzNAE6AJ0ASRlVJJKDwt0Ge//pCQ769xl8cB2KohSsvVZlAO9UBC9fVALfXuMvVbP1VmUA769xl6rMoB317jL1WaZQwh317jL1WZQDvr3GXqsygIPp3r3GXqsygHfXuMvVZlAO+v8b69xl6rMoB317jL1WZQDvr3b9vcZeqzKAd9e4y9VmUA769x0xy9VmUA769xl6rMoB317jL1gDvVZlAO+vcZeqzKAd9e4y9Vs/VWZQDvr3GXqsygHfXuMvVZplDCHfXuMvVZlAO+vcZeqzKAg+nevcZeqzKAd9e4y9VmUA768gAP7/32+t9dO/XTv1079dO/XTv1079dO/XTv1079dO/XTv1079dO/XTv1079dO/XTv1079dO/XTv1079dO/XTv1079dO/XTv1079dO/XTv1079dI9GFHVUhYBT/RfRkykSLRK2HC7O+f6CumDlkxtbv9HCuWfCRGIHfsXPe9MouZ59L+UF57ghOmsa/vc9ZrCa9PaCTpjWlocCBjeUKYLytpPxcn2z+Xz0eAz9WhvQMjDaqCtJpslZsXVYpEsNysPjb6z5WLdIQQSm8ZXiSxPU4HFYtOzz0y0GB1L7U15ucsRdMpP5v/yOz7hjS4NKF6eSlMOmmbCeWjz5MUI6ODWI8RrAiAjLZxj9hORvfKFQXDWIjiGbuYGh5KARbegH/t4Df3N2CaDY7qso//QRYvcFMQuX/VGkpenDe9vGoVU5xIHWVsaXjJxEnncYGvxtQnbUTiFbaCvCge87DkK8Lhver1F/T2sLoaeRV2aAZZMvRq0S9/gej/CAP8DQWBLPD6RkelZk7luphv5C3g+v+XG0GyPCdEkvBOEoCEPjd4FC76k2jLGK52ev0Ber6U9E4LspHfYSCAKuHosgJeQkdjKXQ2mt455h+HYgCFGDBFwUD4ve9+xtyOXEax7QNM5eLqdBC4c0JEAcwJSCdjbjT6Qv5HRyvh5zq2JxmEwlersxdkUklibodmmREPhUZtmwxu4EkdiC5FrZhoFsMKfLv3YsM9ds7fPOvlzjpOLSHLestJZvkl+DeeslO2WfDu4A9KNzuVhfpuvqVrh989XT5W0XDNfTQjd4gqa4bCBA+9yTyzftPyJ1REUTFSZSATbzWYtUQIiuy5zeiIzjm7qWkh/jzXlgHDEarLII/DbiGQN/+r4TfC7tp/sm+qwWhuRJwvyYYZF6xbpG9e74RL0NdvV0MMFlLHDjy2PO6xES/HQbBQDdJOmYa86DaKMKSuZAkDhvlR5UknYXfKEunv1hVElsnJf8VDdiWrDEwY6YDVrVPsn11edIXqvDsm73zUgxgS0HT5VqrXWrHStj1ztccPWk2CMzI6XgpL0ywktbshL86L74pwfZvTQytpUor+1YbwPDFxz1Zp9rQfVfw2OMfKlDM4tyNeq5kNXHzUZFod0KCX4lZhUXhqJZAb5DUerNbawwKISva8lWvnyKmdQMOG7WBmNEUKp9oc7lHzo2q9yv+Z9Qpt5hX920eIEYIYdDH47UXN827nntmEIMH/RKgG9q735brCfKYfNarOOdkYNWpKjTq+4s5XLHWffWiPXtULnv0CGgzgb6lMp2wgkwI02gbXTgwe292xFNXW6z/mcACWB2lobOD0bftOuIHe4Zu39d5321fvRjWLr8Wbmd4Ru7geqONw5QXPjXjDc0tQF9e8DKItGC1ADU7L9C+axvvksLyx4xPzIOElDDShJVDZCYj2rXaE52OJabV30/7ThkqAEk9pQ80vurQnF8/z8jOr4+snwITL4pyFOElvBBReJZoQ3rMvdyWghUCY6dNHXnO+v4kQz/boFDuic+XS29/g1+L92zVibQvDuom+WZoXjQWqIaz/74sgwOMP0eXriH/xXG7xwaTvd6o3KS5uAmJbmKxEm9Abxm+k5zVfI5UCL9sFxjnb3OBqmj9aC+UUpphHDahDf0nGrTmxC/X/l780QtqTDJEZt/WregWTQy71I6Lrg53OI0PTch2OKYisp+91JFIhjvT2Y71dEFAY/mKz4s+YlUtqZqtgyb/gBjUEJ1/2Bh0I5YYxSdXH+8Zq430Cz69CaDWeVml4/J0vc5ModLcozSHcsakzSikbL29TXmAxWALSJiHyw/ATfqxu+yUpoJiuybZLRVUD0YFoSh//32C2jQhixQ1zJ/RiZpqMuatau+rCW8K1loQEHXuyLy2IMc25CNsz3LjpzPYYmsKPqpYnv4rFVTZnXZDVkHwe5OUJvqABJLB3Xt6yumvoUtrVXVul3+SkFmpv0JfzSdc6uWNbnTuQjgKNPMRzBxYUdyl+vtaZHZwYrtjT1bwQYUmonAaXPf2+lCuP7cYQvkzSGidK9Zuf/4bkKGBrztTcaos73dB4JId07x4wBDA0Yf0Sb31aHxCSqJlaB8ga7S574gr4u9ZJcwRw7JqJqia5n9WKzrC7Fgd5g9K2jMb6emDDtzTivsXy/EJNx5n4SfnlSReKCzM+nT7l8DP6MHK1yN/LHbofpZX1Oo7h1JsmTfW7lVhlq1ZlEf3cP1ZRFCg7WF+m81YA+1QfRwyBUyzuO1G7MemyjYyVHY7q9TzHJfEfv0XRTaJ9gusRuIXY/lSNu9AeaDqokQ0gdn0UCTrfFhXRcmlHrbD42J6KxM7m5yN2qICBY4wzJKa4pL7u1OOPzFO2uLsQRAoGZzZUTSbfiLJl0XNsBlgb3M+85zw6w3ivm48FtNe+lPAcymeYLpDdx1enufAYh+REY53gS7rP/3tWk64sLK1g7d6CWgwjbprf+HZtW7NOhZ8MdlUaKl+Q7sRxjnvNSEY5YGHUPDb8LjKwOzpASYtv0mxyMXeusS4mcAc7HAt1KKAUJ0hYfDGxCA3WDbkp4/qZaRq3WeZ5SKeJQYyOMdOO4iLl1NbIuk8Eg8R2FUPOFS7A1rP5wmWHSpdFiD9BVCNYVJ5/9V6wiXJonIIO98T2AAby4oRFJgk6XGFmxAV86yvPSBpFUkK5uUgVFIa0/TyjQzK2gt5LIMu3hSTlGG5qWHafbQBbTH3/cEETt4gdKbB2FNX3hycwl3meyBCaL1fNue90rfFJzzCERMTiv20bpj7S4drPRkG5U9EmnzRaO5lliGaTlISVqWIw3N/xz5dLcoAwrRSVNAc4ZHOKcSE1Tbc+DlEieYZfIoUtHWTCkVVcHPEoiOrQhLiLrnzZz9DW4jlanMKHEFqq4ciUnuZHIGPnrqytZAENGJW1PWSlZs6s1vJsAXcn1cc/jQlk7N4Je0buhu/iS3cKmxcSSwL+YbLbmaR2GPQYOb3jcpAUEejmUV/y8pFEg8qCGQeXO3P1XfoyeyHi28vnSudho3JLlnKWyqGAkAdhlkRV6GUGjG0kI7hizInwufaFH2ABew7nBEf+irT3G/NjzJ/6wJ6sBi/VtzBgQR3r8bD53VB8jiLpv5YMGwAn/qnpMwOGbjp0P7zGM67dRwY0aKdNRCFhr45kVxSHt9XFBhs3VbKuv59xpWI/oy69AhQeKHyFf6Ed8ak//+ltgrS61mAastJQ6S6ExnFy5ydlhLreFhnJY9WPZXTDWgxDcNgUdLxGEeEzTnYITprGv73PTNsbkrdn/6CLF4VPZfrdDGyw1Dh4SkrieL+/oK2CUPYUzrOF0arZkEfMMs981uarEPe88VaaNLFo264Je/K50gu/BH5bQy2+g8aPG+pQU8+oPBm3pmfqRzLXyVJGhbNt0K/eh3zibYLTB7dXvpo2fXzqfodlURWN9Hq1qygKtVbUXLwBojIN3q5zRJc4Xmc6d4jsEM3qOvvmeZfk9AwjYfiY2n2ZwcecW++EgigoR0ieE3e8ppIg5yVPYK0W/cpcXeivIqLBOZlfbFXE4gGvDxL6c/nCw2I++qayZ4fgFGxvFO4kCybGx3zTnLQYnJ9MJVFXYGBHJwXGgll1XCpd0lOXE92uInjHhSIK3WDUPYRypltbTFf23h08dREkAqNtCOFUEKwcEfidS5QhztxZ3PpUXmmxOeUjcT/HQN7+RmhyTzMKAtowd16HgRzMRhkv/i1f9ktY4Rv5S5f8xqIN8DEMWFO8vT9LChj7Yl/a/jnMCtX5UnPfZNvoiZooCNdWrJD0RKLSrEKoxnjJQsCom6SAYU5Cn/GIKauHqZfx1yFTOGzl2gn28wmp+rlNaN+U6fsjlvklhKMxC96WlyLAEUyWOj2R0i88e5NF9BwtymueXplRpE4o+2fJsVa5PkVKtLmIyvkCG/p3a0/w0FqKYmd/TX2v7qTxZxV5ppEAnv3GQp1JX4rP1R6D/aSD2sv/jM0KaGPHgkgWG6Kl2HrOn9x6lp9E+7Za1nscWTe51kveYAe8t3Of2mhVvDVyy0nWajEVA1GKvk+jULdFrNivYFogNIltDmILthSCTgGYLTZTv8ppeqpuXAosmRyRJ1ULQ0qxog+Srh3Laih2I+cBIxNx2OyIFrIIAOkRPoIfadaHbPGutp02QRFiFgGgwN/nyt44bW32C7S+uE7imA1k1qGu1Dye8fdVwJZDLR41lvICpIYiJ4nVTFCts8uxP5uYm4cN2gK3C+UQ6QMgcUohURYhHtiuLN2nSIrm2cUl10VeqQRGBD3upa4Nh/Z3bZMptsQQI1mI9whzHrMQuc96LOLRp7h5AP0unrvaIHp2v4LJGeWEWp375sU6swD9d5BvVh4D+yg2RcUNsL4N57I3XnbbsDlDzdig/zwDsIgnrVgInMtrMtTe2RFl1sOJbHQ72ohgD3B10wvVtv5G8P18vtBFEgli7TyXar3uI8UQQHCldf4TBaVQoVStyKCDco4XCPtegBzisey6tooEvTBDLl34xVmHtm7bhMAInn9tS+CZRG9cuE/B1VIy8orHoOxztdKEzt1f8Ce1HEcmJfZAclwxpMO/+YLtXBLhGOHzelO6mAODuUHGWl7VstqbHHFfc7s6N3vus6C4oFMLm//TnlUVmy7pXoc5A4ptACc92FeUY5Ho0iReEFGqadrRUx91yvQB13J0wBFbktRQKH2aRgHICq6abvcHxd8Hu9Nq/cxR9P45/5V/nGrBu7w5NbV7PSjyiQFHegcr0o17qux8KYtpmdH+s9cC/u5tdVAsfxkMJKTFcNlGof4KyRSe35Pzh3WTZ7lWffdFKcD2jWxOdsQPAqq82yw2OOZa2EcykiWr1XAmiG+EN7bAm8m8Z23nm8sG29nwK+/CkGvr8LPzrXsJQLSKO9PMtCU0quxeGxqOkvG1rWaqMgIVa3MWgkKTiYe3QrqYSD/u7Qm1N8Bz/r1wcADRwoX120VpuvMawWKNSScnD+odTt+P0yNP7sV3svfXoDxbwhE4hG92hypsVw99lb4mwa8p/pwDU7urIUCCiqJkkcLdAf5ahPxYNcnBrwlw0T76NYtt+9+eyCbsf3f+y3A7M5kanG+vN1zZHNpuDh4pbZf8dDcGWy5BokSy9tgEQwhi+G437JXBmh2+dnbXZMVZDlGLRH3a8UR1zdyE2rI7vhvS5e9Xt5nZ1UKA3LJX1BBJ1vtKF8ipOoITprGv73PT+mc2l97Mop+vu3E76ikMLFu0g2A4uEPmiWC2mq3hVIgd1lxc3+hdq63nerbuZSVTZ9gMU3SRLZromx2QHX3fyEq14o7RVUD0Nuw4okQW7uWw+DpO7Asik8NfFqZ8bR67725Xfaf8rJusEWxQZft+ZHX6AS4dPaKtrUsARrDXfZYJj+Df0H/Kdbh+F3pWubGsNvBW/d4B3mCieuKVEV6LVTg2n3l5DEjWCCbx072jA1avEF3PxwFgMmOX5QGW618MUMVHb1/ZBy25SCXbd6OEhIY2qr5vRrS1SmGMR+yMV67zJRAjl6vXOjC3ATS3MFAAZg9b4IMgSwn7GICzP+sCErV5lcs0GJWYLepyxFWD6L1jMkX1zgAUSY0iLYh9pzhcy/DTYSZvx8uPjDGI4vBIKL5BlINuV50Ilj4GuixodXKuRbv7lksjwAH/XHtMdzKG7XEGNSfjLCz+ArdWFNmP23GIk72M9I1JP8JM4UfSjm1iPaLRldrOeePv+3mcMKFTee2zt/436Xt6QQHx/fVwGn3+QMWANDpDI+mnce89YmL0CKq9Im53kLcmMMYQudV73ayU2W7//BhBC3jApwHnEuQTyZcK9OQt2fi05ZkiCyEO6HfGODGpGuQe6AGvMMKdcyz0rbuOCKEOM+QsNd0y4qrGUn7aP60513v2D35fuM57OMsXurFZTCDB/9ZZcTE52n735k7lyGfvRN/FIMKHOLLGcq9q65jT9wvfMh4W5xG/lfdqMni1vlNj8zTFSxiWygD/wXmCeE9x+PfLna+dTf0ibISUFIUYMqXR0tc6sJvnF6TYcd926Ur3w8IXk9nv2wXqvCpGYW84PNJt7EMfti52nTKddl26tJnPYfUxic+CmcLB10CjaRrPK7Q7xeUkPYiyEYwzQ6xWsU9sadByiOTn+Kheetg7sbJNFMs+SGtQATfe7tHcXy5zkyoV6ASj8Cddj/m7HdNhKIRyTa18U1kMWmpQSE6OjaYGkafh7BD03hbZD6hvrjGCT7gAbMlwx+qMiKZFwFgoOQY5gS9ckcsfv6wHRRef0ciFqBFdOsIJP4YmoWf04Y+6hgac8wGDAHlskAHZIkoCciUhY4GGJPPm/mAvx4O3PCgJrQERDNLR+pPWdbckhN2tWnvS3RyfuPc1ILiuNHFgdd5LeRRzf8s23OhugKBVa/zkaGGR/U+ZwYWdo7Y08FmcNyA2MOV9cx9a/Jw1+UbHlzIMhnKKRMvc1i9KYiFBm9S8r8Fc7s84JWPdP1sgmafftmOUL9ELPFUbTY7DMDQM+pi5H4mQ6Dkjv+Nw0p/LqdpgOMZZMWBVWnijo9Gdf6aD6cbew82N1QbfKHAtUM46HDqQxljY0A76f+H8J1D43m7sfeExSwu5Pf1CcnyNd8Q5JC3eqg5Dlcgi467+EYDCk34TuGJAThKJVxsMO6odolOK5s+P1YyAI1P+hl314GTsmwVsJNclRbT8a2VRitVQ1ICrl0pqA4Cg0lCncBt9E3iHVSO8SbUnmOFzIMtXCuW2AY+iSD1lpgN1KUNO+RchYkFUSnXHA7yaOpm3Ficj/JDRCieVOR1Ni80VVqcgUBnFqo72W1siHxc04ogxgL977UP12vphjql9WF5KYfhLaHrNkuwVnPtSxGfRLXhs2zlIbedFg8B0UKrnwACMW6uBO81oaVJFSfX2gk5CcfTrTZg1KxFsHlnBhBzUvSyx7Q0IaSwy9HM2hz76ZfzJK1VLhnxWYMu94FQzbsrMMOMjNSL6R+RO9myrqia+MHQrmftAVxjSndaofN1CwgF+gSuO4OJPZSQRCzcdnhVfyN/uhQIzIScK7dKEibTOmhBH7e8iYcPnBMkZ/y3VMB54hjYXgBb+XNSgRKUgi1DBvC2Ihjg8OJTkSQP4OjEHaW4PoxGIj0+ULpfm6HYO/DTJPRUEgWnNzAwsHPy706i3qZrNrd/3RUH8TGyAS7hR7lZ6mo2+kp+VeoZ9yX1yHBomNgVexE9D4Fb3Er8YoSJrI3/DMdpMaolbw8wXa18pAosyZ4zcRVAg6GAdTyBX/VTaI/ghRh/MUx2Ya/yDnrGTnX5C3f5gMB8MRHxchrZkKOQOXCjJEjEviKqj//NB9+vxEuZNyrL0sgr2xLYaPG3Qz/BnXnCY9X+BYJJx1Ed66PNyrBaDCOF2o6YdC+c+WW12xvHpHR5m3Vi1ukrBy3NrmswG3UlLRuS+geeemx83WvTy0esA4KG00uihz9c4zwSGhphDDH+iaY3tKH/ScLf3+ykmFx+zAmcGpID8P65eEJv05wD/Q0Gz8gtueK5rFEnzRXdfJlfRgvf28jUTCEooy4bOiJsIqg/bIBAktNBCewhMtITG68U/69eNgCD3ODpxCIq8Alb01uPO8uibveJpJp5BlN1gcq9eb9uYk88Jw6DYk3ivPl+I9P9B15PUDx+chfK9K+UFCyneWMXGmVxfBRZ9if6GQnhlpMbLc1hwm4+Kl2ICf3EsLWN4Q8ISPDkfe/XaCaxl1KZ88UUs8a6eQIRmrI5QcLTNsVNlasnOBpDy+PxHtHygRa2BTgGFhckXRBwRMSqb2lSWM2GTmo8uM05+jAKfiPiDosaUwCeN7y9gFQYBQpo7s18NzexDv5hlE69Zn7g2ZNbl4+l5CrFMhZFP9BpPu2O/qj2B0MFTA3izQVYcSDWKo+jKekW2tpB8O+GPax/2scmBNN0DBaYGtphhs7eaDuH15o3Ks6bDE7wRu/Umvuo0GBntMj/rqe9UqjxVN/YoJjBHJ+trYDW+ELzggBmcXQck0ZRmfx9pJZNu5KpohE5EK167Zp9syljkIw/HQSyihYYjiY7CtZwhjJEX5hQOHsxogkyseCHZMQzxQlOWcZ7eGAm+3uCwIKTnQV3K9k1Qd8yIt2bIs+NvS4ZxJFnyq4RpCGp0ChQelpi9jIKQlmKN871admdEb6NwGBDeRI7YYjmWAR+xvLBYJk/KbwZ6lblS6mBh+x44NajEJBXsDVBLVc4mgc7TcBfep6BtQIBCPildoD11Ny1fWwE89W7ESiJHxRzThRiZCJZqYlz3EAGyN0Pu3lI/4yUtZlT1TuDlcD5r2CA9c8IY/njV4f7AJUBr4d3j2HKq9a4WJSm28ip5gqqAsnWA0QsLraUOTcFUp+s01Gb9F4NIrMAEx8LMBpg8ByQii3DYWq0eGltNFwxB8uxULREMU2n4JHDzz0rzrAMf4O0/q80hJ0gx+txkLLaVk41njtlfuL37pRkbJnKGgxqXpq9lWiFJG6hnZAh+7ups5Vknmr0j0UuMWxxXL3Spp9eFX51UncqFU0qHhE1A37pUSkCTRq5fUG3R18eJua5FmaRRNACcL9k0wb9AClNMqH1hoZCCmHr4Q6r8AwdwVuaSA6kOT0YWC94SNSmmm6VlL/OgwMmLoV5B3xuX4GKdNc+NpLLWAf/QrOBMtdJC8SAOhyT/W1nMWLBAPYgXRDVN6kQQCvoW5FbBzomRPScgXhr03vUO0jqy+JUBOk3LQEArqyK95cpzgZUd8VWsLDUnScHP8Plp+mDF5RCTAscvhoyevDk6b+Bna9HpztF41yAuncWDLWRuNxJxHsY4ZEARNHcAnZaEXu9V3TMmJOwImIAQrT0tz5RZhgIk3x9vIW7LumByRZYPLc9gAYx3oVFsoxDJHkLSocSB0RBnW3QWqH8Nwnq/XUJyWfz7UeUYJXtM0UzjhSpBR9jx3iJrG0b7nCJ5Lf7vDkKmCn9TixmFIHN73Vk+UgRjiDG0ozslrD2pD5DiOhV1t7SdDTbj4l/Dxiyo8Ioivwdj6g58SkRn4bemRrnGmqgck3HRjSMb2MYO6R7boLVD+G4T1iEGjBwQTJBGsszdnVLyy+II8lLQgd301xTY6uvrkL27d/H9I6GzU1tfcPNHXZEpzbEXVwcKdYzZbYXtyHOgv3igSv9bQyk5ioUgQcDDNNp0SG5T/ZkLQRu/OMORItcDkrNBrdqNcm0fNh69zDKrNnufGIntuLenbZhGrmJjqKKAFeABOWph4p+JI8JPses9205QlTB76RyySGdJsLMT6JSNP5QybzrRLbpfK9rzIm19q3Ejqnkl7Inv8ik/0omkSt4pXyMFg9YS0AfhYLvzVn++C7wOGCYL8OSSKVEU5LS2DGTmWQfLBLZbBK4FDNuo7YNNqaMda/lqZZjDb6D8lIIFZfJ9L5ZbA3u3UMw+84Pq0zj9z9/lOBp5VJm1V0YXaOvw/TVko37Ga4CRR+Sp/OhvugWL/kfWgut53ajf12ufvyd9JRiPSvJ2enTcV6eF4vXQvlQtYyEyI3xwN6Gu+U08gjsTwwEq9/1UnCLZCUhknKJQumuU+BbRRsZAAB8yl4HTLbNremAzLRqaALYCKo9ry1axXCrCNPR1vjsZtjGnL0oz9vzCkNmIoNeGstMTmiff5FhKcK3QwQirlFnVw3y1XxJckjB9CBwYF/b+5cbS8aDtR24a4ZyVWWqJdvjLHDUFoAphKym90KutgWszvy//R/BiMYGKNC6nhxtqq/1T8Ou5Z+iytEfI6jt6Y5O6YeQF5qA4kzKzBiPQcx7MBGFtxMTmHP8k17xTE25fkvjouh9v1GDuaMnQbpvy1GwBPba1hNhHgNlQpsAAA;movable=1;resizable=1;rotatable=1;deletable=1;editable=1;locked=0;connectable=1;clipPath=inset(33.33% 1% 30.33% 2.33%);" parent="1" vertex="1">
          <mxGeometry x="-669" y="80" width="510" height="191.68965517241378" as="geometry" />
        </mxCell>
        <mxCell id="4xqQoK-wmyRuvjZb2HE3-37" value="" style="group" parent="1" vertex="1" connectable="0">
          <mxGeometry x="60" y="370" width="740" height="690" as="geometry" />
        </mxCell>
        <mxCell id="4xqQoK-wmyRuvjZb2HE3-6" value="..." style="rounded=1;whiteSpace=wrap;html=1;align=center;opacity=20;" parent="4xqQoK-wmyRuvjZb2HE3-37" vertex="1">
          <mxGeometry x="104.47058823529412" y="340" width="182.8235294117647" height="150" as="geometry" />
        </mxCell>
        <mxCell id="4xqQoK-wmyRuvjZb2HE3-11" value="..." style="rounded=1;whiteSpace=wrap;html=1;align=center;opacity=20;" parent="4xqQoK-wmyRuvjZb2HE3-37" vertex="1">
          <mxGeometry x="296" y="340" width="182.8235294117647" height="150" as="geometry" />
        </mxCell>
        <mxCell id="4xqQoK-wmyRuvjZb2HE3-30" style="edgeStyle=orthogonalEdgeStyle;rounded=0;orthogonalLoop=1;jettySize=auto;html=1;exitX=0.5;exitY=1;exitDx=0;exitDy=0;entryX=0.5;entryY=0;entryDx=0;entryDy=0;" parent="4xqQoK-wmyRuvjZb2HE3-37" source="4xqQoK-wmyRuvjZb2HE3-2" target="4xqQoK-wmyRuvjZb2HE3-20" edge="1">
          <mxGeometry relative="1" as="geometry" />
        </mxCell>
        <mxCell id="4xqQoK-wmyRuvjZb2HE3-31" style="edgeStyle=orthogonalEdgeStyle;rounded=0;orthogonalLoop=1;jettySize=auto;html=1;exitX=0.5;exitY=1;exitDx=0;exitDy=0;entryX=0.5;entryY=0;entryDx=0;entryDy=0;" parent="4xqQoK-wmyRuvjZb2HE3-37" source="4xqQoK-wmyRuvjZb2HE3-2" target="4xqQoK-wmyRuvjZb2HE3-19" edge="1">
          <mxGeometry relative="1" as="geometry" />
        </mxCell>
        <mxCell id="4xqQoK-wmyRuvjZb2HE3-32" style="edgeStyle=orthogonalEdgeStyle;rounded=0;orthogonalLoop=1;jettySize=auto;html=1;exitX=0.5;exitY=1;exitDx=0;exitDy=0;entryX=0.5;entryY=0;entryDx=0;entryDy=0;" parent="4xqQoK-wmyRuvjZb2HE3-37" source="4xqQoK-wmyRuvjZb2HE3-2" target="4xqQoK-wmyRuvjZb2HE3-15" edge="1">
          <mxGeometry relative="1" as="geometry" />
        </mxCell>
        <mxCell id="4xqQoK-wmyRuvjZb2HE3-2" value="&lt;div align=&quot;center&quot;&gt;QGVAR(hooksData)&lt;br&gt;&lt;br&gt;Hashmap&lt;br&gt;&lt;br&gt;&quot;hooksIDs&quot;&lt;br&gt;&quot;hasExclusiveHook&quot; - false or HookID&lt;br&gt;&quot;Hooks&quot; - Hashmap of Hooks&lt;/div&gt;" style="rounded=1;whiteSpace=wrap;html=1;align=center;" parent="4xqQoK-wmyRuvjZb2HE3-37" vertex="1">
          <mxGeometry width="182.8235294117647" height="130" as="geometry" />
        </mxCell>
        <mxCell id="4xqQoK-wmyRuvjZb2HE3-8" value="&lt;div&gt;Individual Hooks Data&lt;/div&gt;&lt;div&gt;&lt;br&gt;&lt;/div&gt;&lt;div&gt;Hashmap&lt;br&gt;Considered &quot;Read Only&quot;&lt;br&gt;&lt;br&gt;&lt;div&gt;&quot;hookClassname&quot; - classnameString&lt;/div&gt;&lt;div&gt;&quot;displayName&quot; - displayName&lt;br&gt;&quot;isExclusive&quot; - bool&lt;br&gt;&quot;hookOffset&quot; - Array of Numbers&lt;br&gt;&quot;hookIndex&quot; - 0.. front to back&lt;/div&gt;&lt;/div&gt;" style="rounded=1;whiteSpace=wrap;html=1;align=center;" parent="4xqQoK-wmyRuvjZb2HE3-37" vertex="1">
          <mxGeometry x="170" y="320" width="269.76" height="210" as="geometry" />
        </mxCell>
        <mxCell id="4xqQoK-wmyRuvjZb2HE3-33" style="edgeStyle=orthogonalEdgeStyle;rounded=0;orthogonalLoop=1;jettySize=auto;html=1;exitX=0.5;exitY=1;exitDx=0;exitDy=0;entryX=0.5;entryY=0;entryDx=0;entryDy=0;opacity=20;" parent="4xqQoK-wmyRuvjZb2HE3-37" source="4xqQoK-wmyRuvjZb2HE3-15" target="4xqQoK-wmyRuvjZb2HE3-6" edge="1">
          <mxGeometry relative="1" as="geometry" />
        </mxCell>
        <mxCell id="4xqQoK-wmyRuvjZb2HE3-34" style="edgeStyle=orthogonalEdgeStyle;rounded=0;orthogonalLoop=1;jettySize=auto;html=1;exitX=0.5;exitY=1;exitDx=0;exitDy=0;entryX=0.5;entryY=0;entryDx=0;entryDy=0;" parent="4xqQoK-wmyRuvjZb2HE3-37" source="4xqQoK-wmyRuvjZb2HE3-15" target="4xqQoK-wmyRuvjZb2HE3-8" edge="1">
          <mxGeometry relative="1" as="geometry" />
        </mxCell>
        <mxCell id="4xqQoK-wmyRuvjZb2HE3-35" style="edgeStyle=orthogonalEdgeStyle;rounded=0;orthogonalLoop=1;jettySize=auto;html=1;exitX=0.5;exitY=1;exitDx=0;exitDy=0;entryX=0.5;entryY=0;entryDx=0;entryDy=0;opacity=20;" parent="4xqQoK-wmyRuvjZb2HE3-37" source="4xqQoK-wmyRuvjZb2HE3-15" target="4xqQoK-wmyRuvjZb2HE3-11" edge="1">
          <mxGeometry relative="1" as="geometry" />
        </mxCell>
        <mxCell id="4xqQoK-wmyRuvjZb2HE3-15" value="&quot;hooks&quot;&lt;br&gt;&lt;div&gt;Hashmap&lt;/div&gt;&lt;div&gt;&lt;br&gt;&lt;/div&gt;&lt;div&gt;hashmap of Hooks&lt;br&gt;Keys: HookID&lt;/div&gt;" style="rounded=1;whiteSpace=wrap;html=1;align=center;" parent="4xqQoK-wmyRuvjZb2HE3-37" vertex="1">
          <mxGeometry y="180" width="182.8235294117647" height="75" as="geometry" />
        </mxCell>
        <mxCell id="4xqQoK-wmyRuvjZb2HE3-19" value="&quot;hasExclusiveHook&quot;&lt;br&gt;&lt;div&gt;Boolean or String&lt;br&gt;&lt;br&gt;false or &quot;hookID&quot;&lt;/div&gt;" style="rounded=1;whiteSpace=wrap;html=1;align=center;" parent="4xqQoK-wmyRuvjZb2HE3-37" vertex="1">
          <mxGeometry x="200.23529411764707" y="180" width="182.8235294117647" height="75" as="geometry" />
        </mxCell>
        <mxCell id="4xqQoK-wmyRuvjZb2HE3-20" value="&quot;hookIDs&quot;&lt;br&gt;&lt;div&gt;Array of String&lt;/div&gt;&lt;div&gt;&lt;br&gt;Array of HookIDs,&lt;/div&gt;&lt;div&gt;sorted by HookIndex&lt;/div&gt;" style="rounded=1;whiteSpace=wrap;html=1;align=center;" parent="4xqQoK-wmyRuvjZb2HE3-37" vertex="1">
          <mxGeometry x="417.88" y="180" width="232.12" height="75" as="geometry" />
        </mxCell>
        <mxCell id="yT0dor_68AKdngcypEvZ-3" value="READ ONLY&amp;nbsp;" style="shape=umlFrame;whiteSpace=wrap;html=1;pointerEvents=0;" parent="4xqQoK-wmyRuvjZb2HE3-37" vertex="1">
          <mxGeometry x="-30" y="-40" width="770" height="730" as="geometry" />
        </mxCell>
        <mxCell id="yT0dor_68AKdngcypEvZ-41" value="- Hook Data gets initialised by ace action root condition&lt;br&gt;and stored on each vehicle individually&lt;br&gt;&lt;br&gt;&lt;div&gt;- Exclusive Hook: A hook that can only be used exclusively&lt;/div&gt;" style="shape=parallelogram;perimeter=parallelogramPerimeter;whiteSpace=wrap;html=1;fixedSize=1;" parent="4xqQoK-wmyRuvjZb2HE3-37" vertex="1">
          <mxGeometry x="200.23529411764707" width="435.29411764705884" height="110" as="geometry" />
        </mxCell>
        <mxCell id="yT0dor_68AKdngcypEvZ-21" value="" style="edgeStyle=orthogonalEdgeStyle;rounded=0;orthogonalLoop=1;jettySize=auto;html=1;exitX=0.5;exitY=1;exitDx=0;exitDy=0;entryX=0.5;entryY=0;entryDx=0;entryDy=0;" parent="1" source="yT0dor_68AKdngcypEvZ-4" target="yT0dor_68AKdngcypEvZ-20" edge="1">
          <mxGeometry relative="1" as="geometry" />
        </mxCell>
        <mxCell id="yT0dor_68AKdngcypEvZ-23" value="" style="edgeStyle=orthogonalEdgeStyle;rounded=0;orthogonalLoop=1;jettySize=auto;html=1;" parent="1" source="yT0dor_68AKdngcypEvZ-4" target="yT0dor_68AKdngcypEvZ-22" edge="1">
          <mxGeometry relative="1" as="geometry" />
        </mxCell>
        <mxCell id="yT0dor_68AKdngcypEvZ-4" value="HookID: prefix_hook_classname&lt;br&gt;&lt;br&gt;Hashmap&lt;div&gt;&lt;br&gt;&lt;/div&gt;" style="rounded=1;whiteSpace=wrap;html=1;" parent="1" vertex="1">
          <mxGeometry x="-514" y="520" width="200" height="90" as="geometry" />
        </mxCell>
        <mxCell id="yT0dor_68AKdngcypEvZ-20" value="&quot;ropes&quot;&lt;br&gt;&lt;div&gt;Array&lt;/div&gt;&lt;div&gt;&lt;br&gt;&lt;/div&gt;&lt;div&gt;Array of Ropes&lt;/div&gt;" style="whiteSpace=wrap;html=1;rounded=1;" parent="1" vertex="1">
          <mxGeometry x="-459" y="680" width="90" height="90" as="geometry" />
        </mxCell>
        <mxCell id="yT0dor_68AKdngcypEvZ-22" value="&lt;div&gt;&quot;currLength&quot;&lt;/div&gt;&lt;div&gt;&lt;br&gt;Number&lt;/div&gt;" style="rounded=1;whiteSpace=wrap;html=1;" parent="1" vertex="1">
          <mxGeometry x="-355" y="680" width="90" height="90" as="geometry" />
        </mxCell>
        <mxCell id="yT0dor_68AKdngcypEvZ-37" value="If hook is deployed, hookMap&amp;nbsp;will be publicly defined.&lt;br&gt;&lt;br&gt;If a hook is not deployed, it is not defined / nil" style="shape=parallelogram;perimeter=parallelogramPerimeter;whiteSpace=wrap;html=1;fixedSize=1;" parent="1" vertex="1">
          <mxGeometry x="-719" y="420" width="610" height="60" as="geometry" />
        </mxCell>
        <mxCell id="QCXTudB9rJTe6QyoqShM-45" style="edgeStyle=orthogonalEdgeStyle;rounded=0;orthogonalLoop=1;jettySize=auto;html=1;exitX=0.5;exitY=1;exitDx=0;exitDy=0;" edge="1" parent="1" source="yT0dor_68AKdngcypEvZ-38" target="QCXTudB9rJTe6QyoqShM-44">
          <mxGeometry relative="1" as="geometry" />
        </mxCell>
        <mxCell id="yT0dor_68AKdngcypEvZ-38" value="HookID: prefix_hook_classname&lt;br&gt;&lt;br&gt;Hashmap&lt;div&gt;&lt;br&gt;&lt;/div&gt;" style="rounded=1;whiteSpace=wrap;html=1;" parent="1" vertex="1">
          <mxGeometry x="-514" y="520" width="200" height="90" as="geometry" />
        </mxCell>
        <mxCell id="yT0dor_68AKdngcypEvZ-40" value="&lt;div&gt;&quot;currLength&quot;&lt;/div&gt;&lt;div&gt;&lt;br&gt;Number&lt;/div&gt;" style="rounded=1;whiteSpace=wrap;html=1;" parent="1" vertex="1">
          <mxGeometry x="-355" y="680" width="90" height="90" as="geometry" />
        </mxCell>
        <mxCell id="QCXTudB9rJTe6QyoqShM-2" value="_vehicle SetVariable&amp;nbsp;" style="shape=parallelogram;perimeter=parallelogramPerimeter;whiteSpace=wrap;html=1;fixedSize=1;" vertex="1" parent="1">
          <mxGeometry x="-554" width="280" height="60" as="geometry" />
        </mxCell>
        <mxCell id="QCXTudB9rJTe6QyoqShM-6" style="edgeStyle=orthogonalEdgeStyle;rounded=0;orthogonalLoop=1;jettySize=auto;html=1;exitX=0.5;exitY=1;exitDx=0;exitDy=0;entryX=0.5;entryY=0;entryDx=0;entryDy=0;" edge="1" parent="1" source="QCXTudB9rJTe6QyoqShM-3" target="QCXTudB9rJTe6QyoqShM-5">
          <mxGeometry relative="1" as="geometry" />
        </mxCell>
        <mxCell id="QCXTudB9rJTe6QyoqShM-3" value="" style="shape=image;verticalLabelPosition=bottom;labelBackgroundColor=default;verticalAlign=top;aspect=fixed;imageAspect=0;image=data:image/webp,UklGRgQ5AABXRUJQVlA4WAoAAAAQAAAA/wEA/wEAQUxQSBAWAAAB8Idt23Ir2fbtx3FcY9AgZSt2B3Z3920hxg0WYStht1iP3YrYdXMLGNw8Una3lIEg3Y3AjHGe5/7HHPO6JpMxrzF4nud9R0RMAMr+L/u/7P+y/8v+L/u/7P+y/8v+L/u/7P+y/8v+L/u/7P+y/8v+L/u/7P+y/8v+Ly/bZC2fQmRtnijO3gey9k4Ft3JcW8jaOkOzN1nBp6ApTcy0tGPo8AMrOWpDSCpTAQDREk6Ew+aymk8Y0rkCWx534o4KLdWIoqfz3l0KlVRm2OODStJ9czS0NKOwx1jNeUfCBGlc0a2a9J7kndBSjKHdcFbx561gSOWKC+kdSTrHu6ANiohKERBhl99ZxUEtYEjlit0r6Jk3OP4DWuBEVC2vojgUwylLWc1+EEXBVRVpACAf0bFWz4nrQAqOiKpFZqqChI1bb7Dj+mlPFdfRcdU5MEHhFosiM1MVESk4irPoGTPHG2AFQERUzaLIFEmz7Tbd+YATz+99b//BI7/+bcZi3gpLdYZGr7KKU/eCoQC3PXCnTddpmhUkVsuvKlIAgE/iBU5shjVTRNXyI6FkW2++++GnX9z3vgFDPh0zafbiasZ1fDrdGTb5kpX8dAMYCq/hNFasWDJn0o8fvfPKo7dd1fUfh3bccqO2zRSJRVQtisxUReqfYlcm9DwJWm9E1SwyUxHEj1quv3nHI87sedNDA97++Ke/lqxyrOOqJTPm35PqIuw/k9V8IQtDAY7QjY5J3bJZE3/+fPi/n3vo1ivOO+6Ajltt0EKRXNSiyMxURWT1Ga6ji+fYH7YaRFTVLIpUkFBabLz93kec1vP6B18d9uXYKYtyrGu/dPqv3456u/+9V3c9fv+dO7SOkOLF0LWCPvSBKgqx4fSJv81dXuFiJc79vWDGn+O/GvbGk/16XXjG0fvusHGrJobkavlVRepA8N/08TzHRYgvomp5FQmzzdfffv8Tzrv8lodeHfbVHzMWrWId+4rlsyd8+Z/Xnrz7mvNO3H+bjVo3QpGogvuZ45ITYIJCLdlm7bboeMhJ515y/X3P/uuDrydMnr24wsdJHKpWLp427ssPBg546JYr/nnywbtstXHbpobEImoWRWaqIoKmMxnikRUdYKoWRaYqSNio9Sbb7ndi1179nvnX8G/+mLeiKrCOKxbO+P2roS8/dFPPzsfsvXX7phESquVVFUlxhlbvspITdkCEBjTTZpMd9jjw5K5X3fboy+999O34KQsqYtWhWzrrj1++GfHm0/f07XbG0fvvuuV6zQQJFdtXMvmRUMTMtNui48Endu19b//Bo7/7dfrywLqumDfp50+HvvTgDd1OPWzvHTZsoUgoFkVmqiqC4tCw7ThWcmgrGAq7iKpZFJmqCBJnW63XYds9jzqz27V3P/bi4NHf/zFveYWLlbh6+fzpf4755N2XH7mjT/ezjt1/x41aNsfhDEkcu6PDzoedcn6ffs8MGv3zlLnLcqzj6hVLpv306XsDHrq5e6cjd+6wbnNFfBE1i8xUBMWnRDhuCav5AKBoWEVU1fIrkmearbv17oeefF7Pa+995l/Dv53w58xFq0Kc5NWrFk398TfW4dJFq3KsY7d09pQxH7/T/56+559y8C6btmwkiC+WX1VQ3IriquBC1UUwQcMuIqpqFkWRKeow03rj7fY45OSuV9/x8PNDRn09bsqCynj5g8vlnHPee+9cLucCk66a9fsPowYN6NfrguMO6LhZu8ZIKhZFZqoigqJZkXmW1Zx1CAypU0TVLDJTFUHiTMt1N91+vyNPv6jP3U+++t4nv0yau3RljnVZuXze798Of/2pfld1PXGfbTZp00QQX1TNIlMVQXFuWP8jVvGbDjCkXhFVq1WRWDJN2m3R8ZCTzr3s5gcHDBr1wzdDX37oxh6dTzhguw2aGhKq5VUVQfEfYY/JrOLrTWBI3SKiqmZRFKlgdYtGkZmpiqCkKIazVjLHm6CKIlA0ymazGs+ymYwJSpYquIM5Lj8VJigCTVEzWm/r3Q46+sRjj953581bK2qalSgMzd9mJSfuAkP6FwOQ7Xj+o6MmzKtmrStn/PxuvzO2EQAmJYgIW/7ESo5oB0PqFwWanzJgkmPeELz3PjB/xZhHjmgMqJQYxHDEfOb4uEGR+lWw+X0zSdI57wNjBu+cJ8mJt24E0SJOLDKTeKK4JBd87hKoIPUr1nlgJRlcYB37XCCX3d8GVqyJIq/GUdjjrOb8wxEh/SsOmsLgAlerd4EzToAWZyLYpvdzT5zXFlqboe0IVvKnLWBI/4ozqukCV3twZG9oMSZo/lgVSc7rBs1n2GUiKzmwKQzpX7F3BT3rpXfsAS2+BO2+onfO+cAnIQDEcNrfzPEOiKIoHMlqhtp9Yhe7OizbDFJ0IfMxq1kz5NgPBhXcSMcVnWGCAi6iahZJ4VPswHrs+CCs2FLczxxr9TwBGTR5jVWcshciFFoRVcsraEAVh1cvXLRwzpzZ06ZN/XPSHxN+HffzLz9++91Xn3/xxccfffTRiOHDhw99//33Bw8aPOit19+9HpIexCIzU5HCptgtx5ie4xqhw9es4ifrw1AIRVQtMlMVJGzcev3tDjipS58tIIUOyLZv06ZNq1atmjdv1qRp42yjjEUqgrQtGkWRmaqISIF5gy4GHTvvNJdV7J+FYg0VEVWzKDJB0sbtt9j1gBMv6HPv84NHfvXbrOWB9DwNVog0MpEYq1NERGuaWs0oiiyGiEUqDZjgsNu7nX3KkXttu2EzQ3KxWlVF1ijBVn8z4bRFdLwGqqjHIqKWV5FQsi033/XgUy/oe9/z73w2dtKc5Z5JHXsiKjhqKKimDZbhITqSvmLZvD9/+OidVx6/q8/FZx619zYbt2+RQWJRVbPITFWkfhn60CWg46LjYILVLapmkZmKIH6m5Xqb7XZkp543PfTiO5+MmbFoRTXruHLJnL9+GvXWywdAC4wq0HTfq54aPPzD0Wv4hyOGPNf3kJaAaIP1ap46XDX/r7FfjRzy4kO3XHHeCYfus+Nm7ZugDsWiKDJTVRFZLYIP6RN4jt8WhroUUVWzyFSQtMWGW+95xFmX3vLY68O+GDtlcY517ZfN/v2HD//11J1XnnvcATtvuo6iECuw82NTWUBnDzgA0IZJ0enZFwaP/GbCjKUVuXiJq5bO+WvCl8PeeOruvt07H3/grpu3bRIhuVqtqiKxBOstYogX+GcbGPKLqFpeQcKo2QY77H/8uZff9vgbw7+bMG3BisC6DVV/zxz/xX9ef/L2K845Zs/tNm3fGAlFTQqMYos3q0i6nHN+zXc5F8jwwa5QaYhqzzRrvclO+x93Vvfetz/2ynufjpk8e9EKFytx9cqlc37/bvTglx7r1/fiM47Yd7uN2jWPkFhEzaLILIP9mNTz12wURaYqiC9N2m68zV7Hdrni9qffGv7txPnLKwPr1q9YMH3i9/95/YmbL+l8zN5btWueQUK1vKoiKLyi6Pk3gwssoMF5Vt8mIg2SRqaoQ2u14Ta7H3z82Zfe+MDzg0Z+8fPE2ctcrORhxdxJY74cMWjAAzddes7xh+y53SatM4hp6EqfgFyxBQR5M2033fmAE8/vfW//wR9+/8fslazzyoVTxnw19KUHru926uF7brN+EyQVi8xMVUVQ2AWZl+gdC65zHLYOtCGqVURUzaLITEWQWJu122Sb3Q8/7cJedz7+8pDR3/42a9nK6hAncVi1aNaksZ8Pfe2Jfr0v7nTswRs/QJeIPU/o1ve+AUM+HTNp9uJq1rGvWDT5x9GDBvzXdRefevBOW2zQypBQ1KLITEUEDWn0HnOBBTjk+G1rSMOVXERUrVZB4myzdTbaYb9jz+p27d1PvfGfL8ZPnrlwpY+TvCrHkCQE1nFu+ZwpP48e+Ey/Xt1PO2yPDq0aK+KL5VcRNNSCV5ljgc7xwyzSq4iqmlkUmaIOtdVG2+5x8DGdelx/f/9Bo78Z99e8FSHWavZLp//6zai3+993TdcTD+y4ZZsMkmoUmZmqiCAFGq5jjgU7x6egqSW5iKpZFJmqCBJHLdbddJuOh516Ya+7nnjh3yO+njBr1ZLlcVYsqVj4x9cj3nry7mvOO2nfrTdq3QgJRdWiyFRFkDYVe+ZYyD1PhqalxCKqavkVyTPNM8f/ypAvcNJp2RZZJFTLqyqClDuSvrCNbYriUERU1cyiyFQgOPdvxl55KQDRKDJTVRGkZsUJ9Czojj1hRUFSw+kMLsR0nr1hSOOCoXSFzfMHQfEpaD6ZgQlzO0NTmGDzVSz8+0GLDsVeUydOSvj7gm6wFGY4n67QOd6GqOgAomZ12BhpXPFMQzAMUkyIRqZqgro0VVWLTNKU4Av6Qhc4OYviUQz1Uiw9wSYzFL5l7SHFggqaH9n30edW69P9umwJqKSmFjMLH7lqi6JBseF9s1gPq0afBNF0JGgzpyGo2q5YUHRdSIZczq3enCc5ZANoKWHbIkHwIIMLrI/OccoO0LVNinuYC6yvOU7tAFm7ZDiDjvU4x9GKtUqCFn/S1yfm2AO2NslwGR3rteeELNYmAV/R1y8GngBbeyTYcgXru+MDa5MMx9PXN8/RkLVJXejq33ik35JKj/oXOPH/+feniKZdQ7u5pSvPP5B+Ba1mNwQV2xUFPetf4LQddtgx7e607f4LCp9n5dapTyyLi+pfydAH9oUg1ZsCgn6lGs8VZ0CQ4sUArN/1reks0TrO3hcR0rsY0OSkIctYss3xl81hSO8maHvdZJLehdJMjsNawZDaVdH6tkWkd4Gl2eD4jEGR2hX45ywG51mqDYHXQwWp3dBhBOkCS7aeFZ0RCVK74bSFdIGlW8d5B8GQ3hU3k44lXMdx28KQ3gVP0gXm9845nye4/H5NCq72UAfe1e6TBVd7SBZczGTe1eobnBxHtoYhvSv6M8e8wbGwBsYNiQLjhiSBcUOSwLghSWDM0LAExxcNivRu+C/mmNcHVn//3LWdn2Zg4Mvn9ejWrVvPc/szrCmBk97K/+aguUw+6pabat58490TGOIF/vFW/jcHz2fCwMl39OqT95pXqxN9O+idIUOGDHln0Be+QQmBt0AF6d3QjZ55PRfdt53A0Imenl1gAAxn0a0hnu83Rn7BRmMZYnk+DEGtzb6mj+M5MIv8gg5/MMQJnLgeBHkVFzHECbwSgryCLg2JZ3UXmCC9K/asYMjjOWhDAJbFOXkuRNbMGuGcNYZhV2Qsfxad6OMEruiAjOXPohNdHFZuh4zlz+J8ujiON6KR5Y/Q+HeG2jy/hESWNzIMpWsoHOcfigipPvMdPWsGXg0xBQyd85wPA2DovKYEzt8AgvyKfRk7cF4z1K44lD5G4MzWqF1xOGN7doch5pf0tTm+igi1RniswXD8fVsY0rzhBjrWDOwCU6CgLIi3X5L5zWMYDkkwqw2k7nrG+zre67A4jzYUjp+2hyHNC7ZcwlDD8xpEyFtI1l8tzVZH61iHJemRKoLjK1koUr3hGTqS9HwDhro6t1QRPO+EClK9YPPlrBk4Z31IoovQyMyyuLtE4Vl9EUyQ7g396Gp4Xg5Doi4wQLDrUoZShOOSoxAh5QuaT2YgGfh7M8TMF/hi54svvOiC+xdzTS1yHP/cCRHSvuF0BpJ07AtLFDeUInL8fD0YUr/idboaXNEBUgc+V9MFlh6C41uNoSgCW85mIOk4DII6WOMDF2ywWprH0GRtYh2epGcqCJ73QxTp33AUA/P0gRWkefH2TTKvWaxDE8yMd2iSHvG+jPdqw+Hpe8AERcFtdDUC94UWILJia2QtfyMczxCHXLUVMlH+LP5JF2tZB2QtfyP8gz6O4z3IWP4IzacyxBmKTGT5G+HlQua49HgYikLFKHqSgUs3RWQxszinQHg+AEHtQ+ljeb6IWgXtx9HHoOddUNRqI+MFLtwDgryCfvSMW7UvFHkF2y9mKFiOUzoiQlEoaDmVIc/EJoht6FQgSL57Rf7Le33BwKQ/PvZI3of7z2DiQZdfkffy3t8yMOHyQf0H5O3/LeMHzr/roh7du3fv3uPim2cysFDn+M2GMBSHih0dawbOPPPkf5wS87SjHmQoEIFxA5MGxg1JAuMGJgyBMUM8MrAhdBzUFIqi4Vj6GgXdxfRM7nO1ByZ2MT2Tu5zLm/NM5HytLhSq4PkQRFEsGnrR1eKdj+1C4SgyfeBVMEHRGOHZGKVRxxWnIUIRqRhSWnGcticMxeXn9CWUHH/YFIbistFvDKWTHN9vCUNRKWg1u3QSHJ+EKIqN9stZKvWBfaCComPTXKnEs+JMGIpOxQ4skTrO3g8RipGOJZIcx24JQ1Gyd2nE8b/XgaE4ObAUEhyfMyiKlENKID7wRqigWDm09OFZeS5MsNbOcd4hiFC0Kg4rdeQ4fmsYipnDSxw5jmoNw1q74PhyFoq1dsHzNqigyNmvhOFZ1RUmKG4Fm1WXLBwXHI4IxW92PENpwvGP7RGh+DU8TleSyPHTdWEoghV7eZYgg+OrGSiKYsVrzJUcgmc/iKA4Fmwyk67E4Ol7wATFsuLQVXQlBcclRyNCEW04fD69CyUDx0k7wVBUGzYfRjK4Ok7iXfoPJEMMlzzHzzeAochWweGDFrA0GDiwCRRFtwjQ5qBOF/eow+5XTGegD3m848DLr+ub7q+76hdy4Zd0NTwr7rvm2r6x+9xwYQRFMW6KOv+OjrU7XoQI6V7xBjnx6Xzkii0gSCqCIl3U6jLSzJuLWDlmSo3cr2OmnYaspfsMBpKT+82bQbJ68rQJmyFjSVFqVOwRuP0eZOCMZigCFW+Ri9bBfgwci8hQAlUM5PN715jZAlIstMTe9ByD0qjiAP7dq4qB05tCi4GB5OLWtUhJBIJ3+VeNxbtAJe1JhDfIRS2xDwPHoESqOJQkXS5UDWgNSXcCO+53suo47ENfOoFiFHOBpOeP7SBpTrDRh/TOOQ441JFjEJVGBJvPJytGDxzPKr6V6gRtxzNHkp5/VZHjAC2JGB4jFx0Ewb10YS9oelM8xyq+e+Gln9ORpPvmbEgpBI0mkN2RiYDPyJthqU3Q4W/yFigwgDlPMvC1qAQiWH85/94Kigg3ka+nOEMn8rcsokwN5hZ5VvFJaGmkckcYMuhHvpbqribfhhqOouegHdt2/ICO+0FLHYB8T94CEzSeQF6V6i4iv4Zl8CI5ChBkvyIfg5U8DLfQVV2awcbvMKzcBpLaFDv7wFNhGEN2QkayuIj8GKVPQZuJrOb0n5ezivdBkeY/oF9x7bZ7ziUPhsJwGvl9CQSC3ecwkAx8y5DmBR2XM0fnfY43IZvJ4EFyMKT0AcXGr65k4JRLBelecfh8BpKei/eB4YgKz56wEggE2PCYM/ZpCk15UKx/74Sli7+Zx/D3gN6vVnpObgEphUAUNQ2pXwFt3xanBXqSnlVHQlEiFTVFMSgGQHHcNAYG/nYgFGvfRaBo2eXZfz99ZlMo1tIr8opirb2YiRnK/i/7v+z/sv/L/i/7v+z/sv/L/i/7v+z/sv/L/i/7v+z/sv/L/i/7v+z/sv/L/i8jG1ZQOCDOIgAAMLsAnQEqAAIAAjwCFRmLgAAAlnbuAz54ZoF4A/QCR9vkf9f/Hr9//Neh10/+7/tT/if24+danfzz8J/vJ/lfwtn/sAeZ15d+W/2P+3fuN/WP///+PuF/Vv7t/d/2o/p30O/LH+G9wD9Iv61/b/27/q//////1SerL+jf33/nf2L/Y/AD+Wfzn/J/2T99Pmq/rf+N/uHuK+mb5AP5J/av9/+f/eAftz7AH8i/t//i9mP/E/8H/O/vr9D/7Hf+P/Nfvz9Cn88/sX/V/P35APQA/f/3MP4B+//v79J/7T/QP1677/7t/Uv69/m+vw8+e23yMeGfeB6V8xf5d9ZfsX9a/d/4x/tv9n/K3+h/sV7N/GH+N9QX8T/jH9n/MX+/+a19kHlLaF/kv9F/UfYI9OPkH9z/nP95/y3+F+XT3z/ff071a+u3+A9wH+S/zL/d/zL+1++P9v/ULyb/qP+N/Uz4Av4t/Pv+j/qvyI+IL92/vH7c/3D//+9/80/r//C/x/7zf6P7B/4//K/8z/cf8T/5f9b///+j9wHrd/X32FP1Y/5357yIh+rn2wU2w6mQqljQhzpkKpY0Ic6ZCqWNCHOmQq0mCOIQfh4HIbhmGIXhYFQThMEcQg/DwOQ3DMMQvCwKgnCYI4hB+HhMDvr3GXqsygHfXuMvVZlAO+v8b69xl6rMoB317jL1WZQDvr3b9vcZeqzKAd9e4y9VmUA769x0xy9VmUA769xl6rMoB317jL1gDvVZlAO+vcZeqzKAd9e4y9Vs/VWZQDvr3GXqsygHfXuMvVZplDCHfXuMvVZlAO+vcZeqzKAg+nevcZeqzKAd9e4y9VmUA76/xvr3GXqsiGKkHqsygHfXuMvVZlM9EUA768hpPR2uECNyFyw3OKcvMMSTyih9Wnu2oNftE1PWyrosjFH2RGu7p6aEFWfqNpdFxGEIDhkBAfxnCHUsCakf06cd4vaG6jG7tkLV0gws35kl7jLzYBLwce3e2WN98YLo29O2eQMyqiEJGmIdHlyq/k1PJVp8Mu/MYitOeivnZOG3idCGG/ngsN3Jgd9d4BcrpKLJBR2PPImDu4nbTMdNAYmXfdIUW1QV1I8lcuYx9CRKReaS4D6p/QsMkqOHFtyhUyH6yuBHon5mR2ck8Ic7Vzm6dVaqkfCWDEWDgVgEWu7hveimktcigVVZH4JsQ6s0I+KUih50l0GLzpmFXvE6uFekfNmXEx0FMu4uGx/4TtFBA8H/W8yVgeLD6lifMjBQWd1FVEUzvvltFpZi3IuIYm6AWVheoHq5w/x2Us/fgNO9iG2R/eE2n+HY0x+q0d/Q71nc5EIKQOXqsVRIo4hhEH071JV7JKGLtP3YI4C3A35PQtGbAENnBHXjmjVmGFbB8/rchdLAcXKWWZOV4HCVIy+OA6pArcpkIjTZZzTY1E6F9Vvjfh/geP0ZtWBqji/6/svtCEmc9Mr1RE/4cB8kjCpD7VZlM9EJ+gerpLA3PAQxZ1TFFlltvNkMEp7kcRQFbruPF5vYMUaYeV0b1YQvGlKLvQgGwD5XNgXfYwh33YHeYDWbdiqIoB317jL0IB3tzEBoIv+XqsymeiE+1Ifwzp/QPLS0rEIO9FH/LYh+yNiON7UNcjR8b2oa5Gj43tQ1yNHxvahrkaPi7uwVQHY3Lf4/8RFFlerOQW+vcZfHAdinOVzFKBh46RgFjBpzNAE6AJ0ASRlVJJKDwt0Ge//pCQ769xl8cB2KohSsvVZlAO9UBC9fVALfXuMvVbP1VmUA769xl6rMoB317jL1WaZQwh317jL1WZQDvr3GXqsygIPp3r3GXqsygHfXuMvVZlAO+v8b69xl6rMoB317jL1WZQDvr3b9vcZeqzKAd9e4y9VmUA769x0xy9VmUA769xl6rMoB317jL1gDvVZlAO+vcZeqzKAd9e4y9Vs/VWZQDvr3GXqsygHfXuMvVZplDCHfXuMvVZlAO+vcZeqzKAg+nevcZeqzKAd9e4y9VmUA768gAP7/32+t9dO/XTv1079dO/XTv1079dO/XTv1079dO/XTv1079dO/XTv1079dO/XTv1079dO/XTv1079dO/XTv1079dO/XTv1079dO/XTv1079dI9GFHVUhYBT/RfRkykSLRK2HC7O+f6CumDlkxtbv9HCuWfCRGIHfsXPe9MouZ59L+UF57ghOmsa/vc9ZrCa9PaCTpjWlocCBjeUKYLytpPxcn2z+Xz0eAz9WhvQMjDaqCtJpslZsXVYpEsNysPjb6z5WLdIQQSm8ZXiSxPU4HFYtOzz0y0GB1L7U15ucsRdMpP5v/yOz7hjS4NKF6eSlMOmmbCeWjz5MUI6ODWI8RrAiAjLZxj9hORvfKFQXDWIjiGbuYGh5KARbegH/t4Df3N2CaDY7qso//QRYvcFMQuX/VGkpenDe9vGoVU5xIHWVsaXjJxEnncYGvxtQnbUTiFbaCvCge87DkK8Lhver1F/T2sLoaeRV2aAZZMvRq0S9/gej/CAP8DQWBLPD6RkelZk7luphv5C3g+v+XG0GyPCdEkvBOEoCEPjd4FC76k2jLGK52ev0Ber6U9E4LspHfYSCAKuHosgJeQkdjKXQ2mt455h+HYgCFGDBFwUD4ve9+xtyOXEax7QNM5eLqdBC4c0JEAcwJSCdjbjT6Qv5HRyvh5zq2JxmEwlersxdkUklibodmmREPhUZtmwxu4EkdiC5FrZhoFsMKfLv3YsM9ds7fPOvlzjpOLSHLestJZvkl+DeeslO2WfDu4A9KNzuVhfpuvqVrh989XT5W0XDNfTQjd4gqa4bCBA+9yTyzftPyJ1REUTFSZSATbzWYtUQIiuy5zeiIzjm7qWkh/jzXlgHDEarLII/DbiGQN/+r4TfC7tp/sm+qwWhuRJwvyYYZF6xbpG9e74RL0NdvV0MMFlLHDjy2PO6xES/HQbBQDdJOmYa86DaKMKSuZAkDhvlR5UknYXfKEunv1hVElsnJf8VDdiWrDEwY6YDVrVPsn11edIXqvDsm73zUgxgS0HT5VqrXWrHStj1ztccPWk2CMzI6XgpL0ywktbshL86L74pwfZvTQytpUor+1YbwPDFxz1Zp9rQfVfw2OMfKlDM4tyNeq5kNXHzUZFod0KCX4lZhUXhqJZAb5DUerNbawwKISva8lWvnyKmdQMOG7WBmNEUKp9oc7lHzo2q9yv+Z9Qpt5hX920eIEYIYdDH47UXN827nntmEIMH/RKgG9q735brCfKYfNarOOdkYNWpKjTq+4s5XLHWffWiPXtULnv0CGgzgb6lMp2wgkwI02gbXTgwe292xFNXW6z/mcACWB2lobOD0bftOuIHe4Zu39d5321fvRjWLr8Wbmd4Ru7geqONw5QXPjXjDc0tQF9e8DKItGC1ADU7L9C+axvvksLyx4xPzIOElDDShJVDZCYj2rXaE52OJabV30/7ThkqAEk9pQ80vurQnF8/z8jOr4+snwITL4pyFOElvBBReJZoQ3rMvdyWghUCY6dNHXnO+v4kQz/boFDuic+XS29/g1+L92zVibQvDuom+WZoXjQWqIaz/74sgwOMP0eXriH/xXG7xwaTvd6o3KS5uAmJbmKxEm9Abxm+k5zVfI5UCL9sFxjnb3OBqmj9aC+UUpphHDahDf0nGrTmxC/X/l780QtqTDJEZt/WregWTQy71I6Lrg53OI0PTch2OKYisp+91JFIhjvT2Y71dEFAY/mKz4s+YlUtqZqtgyb/gBjUEJ1/2Bh0I5YYxSdXH+8Zq430Cz69CaDWeVml4/J0vc5ModLcozSHcsakzSikbL29TXmAxWALSJiHyw/ATfqxu+yUpoJiuybZLRVUD0YFoSh//32C2jQhixQ1zJ/RiZpqMuatau+rCW8K1loQEHXuyLy2IMc25CNsz3LjpzPYYmsKPqpYnv4rFVTZnXZDVkHwe5OUJvqABJLB3Xt6yumvoUtrVXVul3+SkFmpv0JfzSdc6uWNbnTuQjgKNPMRzBxYUdyl+vtaZHZwYrtjT1bwQYUmonAaXPf2+lCuP7cYQvkzSGidK9Zuf/4bkKGBrztTcaos73dB4JId07x4wBDA0Yf0Sb31aHxCSqJlaB8ga7S574gr4u9ZJcwRw7JqJqia5n9WKzrC7Fgd5g9K2jMb6emDDtzTivsXy/EJNx5n4SfnlSReKCzM+nT7l8DP6MHK1yN/LHbofpZX1Oo7h1JsmTfW7lVhlq1ZlEf3cP1ZRFCg7WF+m81YA+1QfRwyBUyzuO1G7MemyjYyVHY7q9TzHJfEfv0XRTaJ9gusRuIXY/lSNu9AeaDqokQ0gdn0UCTrfFhXRcmlHrbD42J6KxM7m5yN2qICBY4wzJKa4pL7u1OOPzFO2uLsQRAoGZzZUTSbfiLJl0XNsBlgb3M+85zw6w3ivm48FtNe+lPAcymeYLpDdx1enufAYh+REY53gS7rP/3tWk64sLK1g7d6CWgwjbprf+HZtW7NOhZ8MdlUaKl+Q7sRxjnvNSEY5YGHUPDb8LjKwOzpASYtv0mxyMXeusS4mcAc7HAt1KKAUJ0hYfDGxCA3WDbkp4/qZaRq3WeZ5SKeJQYyOMdOO4iLl1NbIuk8Eg8R2FUPOFS7A1rP5wmWHSpdFiD9BVCNYVJ5/9V6wiXJonIIO98T2AAby4oRFJgk6XGFmxAV86yvPSBpFUkK5uUgVFIa0/TyjQzK2gt5LIMu3hSTlGG5qWHafbQBbTH3/cEETt4gdKbB2FNX3hycwl3meyBCaL1fNue90rfFJzzCERMTiv20bpj7S4drPRkG5U9EmnzRaO5lliGaTlISVqWIw3N/xz5dLcoAwrRSVNAc4ZHOKcSE1Tbc+DlEieYZfIoUtHWTCkVVcHPEoiOrQhLiLrnzZz9DW4jlanMKHEFqq4ciUnuZHIGPnrqytZAENGJW1PWSlZs6s1vJsAXcn1cc/jQlk7N4Je0buhu/iS3cKmxcSSwL+YbLbmaR2GPQYOb3jcpAUEejmUV/y8pFEg8qCGQeXO3P1XfoyeyHi28vnSudho3JLlnKWyqGAkAdhlkRV6GUGjG0kI7hizInwufaFH2ABew7nBEf+irT3G/NjzJ/6wJ6sBi/VtzBgQR3r8bD53VB8jiLpv5YMGwAn/qnpMwOGbjp0P7zGM67dRwY0aKdNRCFhr45kVxSHt9XFBhs3VbKuv59xpWI/oy69AhQeKHyFf6Ed8ak//+ltgrS61mAastJQ6S6ExnFy5ydlhLreFhnJY9WPZXTDWgxDcNgUdLxGEeEzTnYITprGv73PTNsbkrdn/6CLF4VPZfrdDGyw1Dh4SkrieL+/oK2CUPYUzrOF0arZkEfMMs981uarEPe88VaaNLFo264Je/K50gu/BH5bQy2+g8aPG+pQU8+oPBm3pmfqRzLXyVJGhbNt0K/eh3zibYLTB7dXvpo2fXzqfodlURWN9Hq1qygKtVbUXLwBojIN3q5zRJc4Xmc6d4jsEM3qOvvmeZfk9AwjYfiY2n2ZwcecW++EgigoR0ieE3e8ppIg5yVPYK0W/cpcXeivIqLBOZlfbFXE4gGvDxL6c/nCw2I++qayZ4fgFGxvFO4kCybGx3zTnLQYnJ9MJVFXYGBHJwXGgll1XCpd0lOXE92uInjHhSIK3WDUPYRypltbTFf23h08dREkAqNtCOFUEKwcEfidS5QhztxZ3PpUXmmxOeUjcT/HQN7+RmhyTzMKAtowd16HgRzMRhkv/i1f9ktY4Rv5S5f8xqIN8DEMWFO8vT9LChj7Yl/a/jnMCtX5UnPfZNvoiZooCNdWrJD0RKLSrEKoxnjJQsCom6SAYU5Cn/GIKauHqZfx1yFTOGzl2gn28wmp+rlNaN+U6fsjlvklhKMxC96WlyLAEUyWOj2R0i88e5NF9BwtymueXplRpE4o+2fJsVa5PkVKtLmIyvkCG/p3a0/w0FqKYmd/TX2v7qTxZxV5ppEAnv3GQp1JX4rP1R6D/aSD2sv/jM0KaGPHgkgWG6Kl2HrOn9x6lp9E+7Za1nscWTe51kveYAe8t3Of2mhVvDVyy0nWajEVA1GKvk+jULdFrNivYFogNIltDmILthSCTgGYLTZTv8ppeqpuXAosmRyRJ1ULQ0qxog+Srh3Laih2I+cBIxNx2OyIFrIIAOkRPoIfadaHbPGutp02QRFiFgGgwN/nyt44bW32C7S+uE7imA1k1qGu1Dye8fdVwJZDLR41lvICpIYiJ4nVTFCts8uxP5uYm4cN2gK3C+UQ6QMgcUohURYhHtiuLN2nSIrm2cUl10VeqQRGBD3upa4Nh/Z3bZMptsQQI1mI9whzHrMQuc96LOLRp7h5AP0unrvaIHp2v4LJGeWEWp375sU6swD9d5BvVh4D+yg2RcUNsL4N57I3XnbbsDlDzdig/zwDsIgnrVgInMtrMtTe2RFl1sOJbHQ72ohgD3B10wvVtv5G8P18vtBFEgli7TyXar3uI8UQQHCldf4TBaVQoVStyKCDco4XCPtegBzisey6tooEvTBDLl34xVmHtm7bhMAInn9tS+CZRG9cuE/B1VIy8orHoOxztdKEzt1f8Ce1HEcmJfZAclwxpMO/+YLtXBLhGOHzelO6mAODuUHGWl7VstqbHHFfc7s6N3vus6C4oFMLm//TnlUVmy7pXoc5A4ptACc92FeUY5Ho0iReEFGqadrRUx91yvQB13J0wBFbktRQKH2aRgHICq6abvcHxd8Hu9Nq/cxR9P45/5V/nGrBu7w5NbV7PSjyiQFHegcr0o17qux8KYtpmdH+s9cC/u5tdVAsfxkMJKTFcNlGof4KyRSe35Pzh3WTZ7lWffdFKcD2jWxOdsQPAqq82yw2OOZa2EcykiWr1XAmiG+EN7bAm8m8Z23nm8sG29nwK+/CkGvr8LPzrXsJQLSKO9PMtCU0quxeGxqOkvG1rWaqMgIVa3MWgkKTiYe3QrqYSD/u7Qm1N8Bz/r1wcADRwoX120VpuvMawWKNSScnD+odTt+P0yNP7sV3svfXoDxbwhE4hG92hypsVw99lb4mwa8p/pwDU7urIUCCiqJkkcLdAf5ahPxYNcnBrwlw0T76NYtt+9+eyCbsf3f+y3A7M5kanG+vN1zZHNpuDh4pbZf8dDcGWy5BokSy9tgEQwhi+G437JXBmh2+dnbXZMVZDlGLRH3a8UR1zdyE2rI7vhvS5e9Xt5nZ1UKA3LJX1BBJ1vtKF8ipOoITprGv73PT+mc2l97Mop+vu3E76ikMLFu0g2A4uEPmiWC2mq3hVIgd1lxc3+hdq63nerbuZSVTZ9gMU3SRLZromx2QHX3fyEq14o7RVUD0Nuw4okQW7uWw+DpO7Asik8NfFqZ8bR67725Xfaf8rJusEWxQZft+ZHX6AS4dPaKtrUsARrDXfZYJj+Df0H/Kdbh+F3pWubGsNvBW/d4B3mCieuKVEV6LVTg2n3l5DEjWCCbx072jA1avEF3PxwFgMmOX5QGW618MUMVHb1/ZBy25SCXbd6OEhIY2qr5vRrS1SmGMR+yMV67zJRAjl6vXOjC3ATS3MFAAZg9b4IMgSwn7GICzP+sCErV5lcs0GJWYLepyxFWD6L1jMkX1zgAUSY0iLYh9pzhcy/DTYSZvx8uPjDGI4vBIKL5BlINuV50Ilj4GuixodXKuRbv7lksjwAH/XHtMdzKG7XEGNSfjLCz+ArdWFNmP23GIk72M9I1JP8JM4UfSjm1iPaLRldrOeePv+3mcMKFTee2zt/436Xt6QQHx/fVwGn3+QMWANDpDI+mnce89YmL0CKq9Im53kLcmMMYQudV73ayU2W7//BhBC3jApwHnEuQTyZcK9OQt2fi05ZkiCyEO6HfGODGpGuQe6AGvMMKdcyz0rbuOCKEOM+QsNd0y4qrGUn7aP60513v2D35fuM57OMsXurFZTCDB/9ZZcTE52n735k7lyGfvRN/FIMKHOLLGcq9q65jT9wvfMh4W5xG/lfdqMni1vlNj8zTFSxiWygD/wXmCeE9x+PfLna+dTf0ibISUFIUYMqXR0tc6sJvnF6TYcd926Ur3w8IXk9nv2wXqvCpGYW84PNJt7EMfti52nTKddl26tJnPYfUxic+CmcLB10CjaRrPK7Q7xeUkPYiyEYwzQ6xWsU9sadByiOTn+Kheetg7sbJNFMs+SGtQATfe7tHcXy5zkyoV6ASj8Cddj/m7HdNhKIRyTa18U1kMWmpQSE6OjaYGkafh7BD03hbZD6hvrjGCT7gAbMlwx+qMiKZFwFgoOQY5gS9ckcsfv6wHRRef0ciFqBFdOsIJP4YmoWf04Y+6hgac8wGDAHlskAHZIkoCciUhY4GGJPPm/mAvx4O3PCgJrQERDNLR+pPWdbckhN2tWnvS3RyfuPc1ILiuNHFgdd5LeRRzf8s23OhugKBVa/zkaGGR/U+ZwYWdo7Y08FmcNyA2MOV9cx9a/Jw1+UbHlzIMhnKKRMvc1i9KYiFBm9S8r8Fc7s84JWPdP1sgmafftmOUL9ELPFUbTY7DMDQM+pi5H4mQ6Dkjv+Nw0p/LqdpgOMZZMWBVWnijo9Gdf6aD6cbew82N1QbfKHAtUM46HDqQxljY0A76f+H8J1D43m7sfeExSwu5Pf1CcnyNd8Q5JC3eqg5Dlcgi467+EYDCk34TuGJAThKJVxsMO6odolOK5s+P1YyAI1P+hl314GTsmwVsJNclRbT8a2VRitVQ1ICrl0pqA4Cg0lCncBt9E3iHVSO8SbUnmOFzIMtXCuW2AY+iSD1lpgN1KUNO+RchYkFUSnXHA7yaOpm3Ficj/JDRCieVOR1Ni80VVqcgUBnFqo72W1siHxc04ogxgL977UP12vphjql9WF5KYfhLaHrNkuwVnPtSxGfRLXhs2zlIbedFg8B0UKrnwACMW6uBO81oaVJFSfX2gk5CcfTrTZg1KxFsHlnBhBzUvSyx7Q0IaSwy9HM2hz76ZfzJK1VLhnxWYMu94FQzbsrMMOMjNSL6R+RO9myrqia+MHQrmftAVxjSndaofN1CwgF+gSuO4OJPZSQRCzcdnhVfyN/uhQIzIScK7dKEibTOmhBH7e8iYcPnBMkZ/y3VMB54hjYXgBb+XNSgRKUgi1DBvC2Ihjg8OJTkSQP4OjEHaW4PoxGIj0+ULpfm6HYO/DTJPRUEgWnNzAwsHPy706i3qZrNrd/3RUH8TGyAS7hR7lZ6mo2+kp+VeoZ9yX1yHBomNgVexE9D4Fb3Er8YoSJrI3/DMdpMaolbw8wXa18pAosyZ4zcRVAg6GAdTyBX/VTaI/ghRh/MUx2Ya/yDnrGTnX5C3f5gMB8MRHxchrZkKOQOXCjJEjEviKqj//NB9+vxEuZNyrL0sgr2xLYaPG3Qz/BnXnCY9X+BYJJx1Ed66PNyrBaDCOF2o6YdC+c+WW12xvHpHR5m3Vi1ukrBy3NrmswG3UlLRuS+geeemx83WvTy0esA4KG00uihz9c4zwSGhphDDH+iaY3tKH/ScLf3+ykmFx+zAmcGpID8P65eEJv05wD/Q0Gz8gtueK5rFEnzRXdfJlfRgvf28jUTCEooy4bOiJsIqg/bIBAktNBCewhMtITG68U/69eNgCD3ODpxCIq8Alb01uPO8uibveJpJp5BlN1gcq9eb9uYk88Jw6DYk3ivPl+I9P9B15PUDx+chfK9K+UFCyneWMXGmVxfBRZ9if6GQnhlpMbLc1hwm4+Kl2ICf3EsLWN4Q8ISPDkfe/XaCaxl1KZ88UUs8a6eQIRmrI5QcLTNsVNlasnOBpDy+PxHtHygRa2BTgGFhckXRBwRMSqb2lSWM2GTmo8uM05+jAKfiPiDosaUwCeN7y9gFQYBQpo7s18NzexDv5hlE69Zn7g2ZNbl4+l5CrFMhZFP9BpPu2O/qj2B0MFTA3izQVYcSDWKo+jKekW2tpB8O+GPax/2scmBNN0DBaYGtphhs7eaDuH15o3Ks6bDE7wRu/Umvuo0GBntMj/rqe9UqjxVN/YoJjBHJ+trYDW+ELzggBmcXQck0ZRmfx9pJZNu5KpohE5EK167Zp9syljkIw/HQSyihYYjiY7CtZwhjJEX5hQOHsxogkyseCHZMQzxQlOWcZ7eGAm+3uCwIKTnQV3K9k1Qd8yIt2bIs+NvS4ZxJFnyq4RpCGp0ChQelpi9jIKQlmKN871admdEb6NwGBDeRI7YYjmWAR+xvLBYJk/KbwZ6lblS6mBh+x44NajEJBXsDVBLVc4mgc7TcBfep6BtQIBCPildoD11Ny1fWwE89W7ESiJHxRzThRiZCJZqYlz3EAGyN0Pu3lI/4yUtZlT1TuDlcD5r2CA9c8IY/njV4f7AJUBr4d3j2HKq9a4WJSm28ip5gqqAsnWA0QsLraUOTcFUp+s01Gb9F4NIrMAEx8LMBpg8ByQii3DYWq0eGltNFwxB8uxULREMU2n4JHDzz0rzrAMf4O0/q80hJ0gx+txkLLaVk41njtlfuL37pRkbJnKGgxqXpq9lWiFJG6hnZAh+7ups5Vknmr0j0UuMWxxXL3Spp9eFX51UncqFU0qHhE1A37pUSkCTRq5fUG3R18eJua5FmaRRNACcL9k0wb9AClNMqH1hoZCCmHr4Q6r8AwdwVuaSA6kOT0YWC94SNSmmm6VlL/OgwMmLoV5B3xuX4GKdNc+NpLLWAf/QrOBMtdJC8SAOhyT/W1nMWLBAPYgXRDVN6kQQCvoW5FbBzomRPScgXhr03vUO0jqy+JUBOk3LQEArqyK95cpzgZUd8VWsLDUnScHP8Plp+mDF5RCTAscvhoyevDk6b+Bna9HpztF41yAuncWDLWRuNxJxHsY4ZEARNHcAnZaEXu9V3TMmJOwImIAQrT0tz5RZhgIk3x9vIW7LumByRZYPLc9gAYx3oVFsoxDJHkLSocSB0RBnW3QWqH8Nwnq/XUJyWfz7UeUYJXtM0UzjhSpBR9jx3iJrG0b7nCJ5Lf7vDkKmCn9TixmFIHN73Vk+UgRjiDG0ozslrD2pD5DiOhV1t7SdDTbj4l/Dxiyo8Ioivwdj6g58SkRn4bemRrnGmqgck3HRjSMb2MYO6R7boLVD+G4T1iEGjBwQTJBGsszdnVLyy+II8lLQgd301xTY6uvrkL27d/H9I6GzU1tfcPNHXZEpzbEXVwcKdYzZbYXtyHOgv3igSv9bQyk5ioUgQcDDNNp0SG5T/ZkLQRu/OMORItcDkrNBrdqNcm0fNh69zDKrNnufGIntuLenbZhGrmJjqKKAFeABOWph4p+JI8JPses9205QlTB76RyySGdJsLMT6JSNP5QybzrRLbpfK9rzIm19q3Ejqnkl7Inv8ik/0omkSt4pXyMFg9YS0AfhYLvzVn++C7wOGCYL8OSSKVEU5LS2DGTmWQfLBLZbBK4FDNuo7YNNqaMda/lqZZjDb6D8lIIFZfJ9L5ZbA3u3UMw+84Pq0zj9z9/lOBp5VJm1V0YXaOvw/TVko37Ga4CRR+Sp/OhvugWL/kfWgut53ajf12ufvyd9JRiPSvJ2enTcV6eF4vXQvlQtYyEyI3xwN6Gu+U08gjsTwwEq9/1UnCLZCUhknKJQumuU+BbRRsZAAB8yl4HTLbNremAzLRqaALYCKo9ry1axXCrCNPR1vjsZtjGnL0oz9vzCkNmIoNeGstMTmiff5FhKcK3QwQirlFnVw3y1XxJckjB9CBwYF/b+5cbS8aDtR24a4ZyVWWqJdvjLHDUFoAphKym90KutgWszvy//R/BiMYGKNC6nhxtqq/1T8Ou5Z+iytEfI6jt6Y5O6YeQF5qA4kzKzBiPQcx7MBGFtxMTmHP8k17xTE25fkvjouh9v1GDuaMnQbpvy1GwBPba1hNhHgNlQpsAAA;movable=1;resizable=1;rotatable=1;deletable=1;editable=1;locked=0;connectable=1;clipPath=inset(33.33% 1% 30.33% 2.33%);" vertex="1" parent="1">
          <mxGeometry x="-1495" y="80" width="510" height="191.68965517241378" as="geometry" />
        </mxCell>
        <mxCell id="QCXTudB9rJTe6QyoqShM-4" value="ACE Actions" style="shape=parallelogram;perimeter=parallelogramPerimeter;whiteSpace=wrap;html=1;fixedSize=1;" vertex="1" parent="1">
          <mxGeometry x="-1380" width="280" height="60" as="geometry" />
        </mxCell>
        <mxCell id="QCXTudB9rJTe6QyoqShM-9" style="edgeStyle=orthogonalEdgeStyle;rounded=0;orthogonalLoop=1;jettySize=auto;html=1;exitX=0.5;exitY=1;exitDx=0;exitDy=0;entryX=0.5;entryY=0;entryDx=0;entryDy=0;" edge="1" parent="1" source="QCXTudB9rJTe6QyoqShM-5" target="QCXTudB9rJTe6QyoqShM-8">
          <mxGeometry relative="1" as="geometry" />
        </mxCell>
        <mxCell id="QCXTudB9rJTe6QyoqShM-40" style="edgeStyle=orthogonalEdgeStyle;rounded=0;orthogonalLoop=1;jettySize=auto;html=1;exitX=0.5;exitY=1;exitDx=0;exitDy=0;entryX=0.5;entryY=0;entryDx=0;entryDy=0;" edge="1" parent="1" source="QCXTudB9rJTe6QyoqShM-5" target="QCXTudB9rJTe6QyoqShM-39">
          <mxGeometry relative="1" as="geometry" />
        </mxCell>
        <mxCell id="QCXTudB9rJTe6QyoqShM-49" style="edgeStyle=orthogonalEdgeStyle;rounded=0;orthogonalLoop=1;jettySize=auto;html=1;exitX=0.5;exitY=1;exitDx=0;exitDy=0;opacity=20;" edge="1" parent="1" source="QCXTudB9rJTe6QyoqShM-5" target="QCXTudB9rJTe6QyoqShM-48">
          <mxGeometry relative="1" as="geometry" />
        </mxCell>
        <mxCell id="QCXTudB9rJTe6QyoqShM-50" style="edgeStyle=orthogonalEdgeStyle;rounded=0;orthogonalLoop=1;jettySize=auto;html=1;exitX=0.5;exitY=1;exitDx=0;exitDy=0;opacity=20;" edge="1" parent="1" source="QCXTudB9rJTe6QyoqShM-5" target="QCXTudB9rJTe6QyoqShM-47">
          <mxGeometry relative="1" as="geometry" />
        </mxCell>
        <mxCell id="QCXTudB9rJTe6QyoqShM-5" value="Main Action&lt;br&gt;&lt;div&gt;&quot;Sling Loading&quot;&lt;/div&gt;(no statement)" style="ellipse;whiteSpace=wrap;html=1;" vertex="1" parent="1">
          <mxGeometry x="-1340" y="345" width="200" height="80" as="geometry" />
        </mxCell>
        <mxCell id="QCXTudB9rJTe6QyoqShM-11" style="edgeStyle=orthogonalEdgeStyle;rounded=0;orthogonalLoop=1;jettySize=auto;html=1;exitX=0.5;exitY=1;exitDx=0;exitDy=0;entryX=0.5;entryY=0;entryDx=0;entryDy=0;" edge="1" parent="1" source="QCXTudB9rJTe6QyoqShM-8" target="QCXTudB9rJTe6QyoqShM-10">
          <mxGeometry relative="1" as="geometry" />
        </mxCell>
        <mxCell id="QCXTudB9rJTe6QyoqShM-13" style="edgeStyle=orthogonalEdgeStyle;rounded=0;orthogonalLoop=1;jettySize=auto;html=1;exitX=0.5;exitY=1;exitDx=0;exitDy=0;entryX=0.5;entryY=0;entryDx=0;entryDy=0;" edge="1" parent="1" source="QCXTudB9rJTe6QyoqShM-8" target="QCXTudB9rJTe6QyoqShM-12">
          <mxGeometry relative="1" as="geometry" />
        </mxCell>
        <mxCell id="QCXTudB9rJTe6QyoqShM-8" value="Action per Hook&lt;br&gt;&quot;Hooks Displayname&quot;&lt;br&gt;Suffix:&quot; (E)&quot;&lt;br&gt;when Exclusive&lt;br&gt;(no statement)" style="ellipse;whiteSpace=wrap;html=1;" vertex="1" parent="1">
          <mxGeometry x="-1340" y="780" width="200" height="100" as="geometry" />
        </mxCell>
        <mxCell id="QCXTudB9rJTe6QyoqShM-31" style="edgeStyle=orthogonalEdgeStyle;rounded=0;orthogonalLoop=1;jettySize=auto;html=1;exitX=0.5;exitY=1;exitDx=0;exitDy=0;entryX=0.5;entryY=0;entryDx=0;entryDy=0;" edge="1" parent="1" source="QCXTudB9rJTe6QyoqShM-10" target="QCXTudB9rJTe6QyoqShM-30">
          <mxGeometry relative="1" as="geometry" />
        </mxCell>
        <mxCell id="QCXTudB9rJTe6QyoqShM-33" style="edgeStyle=orthogonalEdgeStyle;rounded=0;orthogonalLoop=1;jettySize=auto;html=1;exitX=0.5;exitY=1;exitDx=0;exitDy=0;" edge="1" parent="1" source="QCXTudB9rJTe6QyoqShM-10" target="QCXTudB9rJTe6QyoqShM-32">
          <mxGeometry relative="1" as="geometry" />
        </mxCell>
        <mxCell id="QCXTudB9rJTe6QyoqShM-10" value="If Not Deployed yet" style="shape=parallelogram;perimeter=parallelogramPerimeter;whiteSpace=wrap;html=1;fixedSize=1;" vertex="1" parent="1">
          <mxGeometry x="-2050" y="925" width="276" height="60" as="geometry" />
        </mxCell>
        <mxCell id="QCXTudB9rJTe6QyoqShM-27" style="edgeStyle=orthogonalEdgeStyle;rounded=0;orthogonalLoop=1;jettySize=auto;html=1;exitX=0.5;exitY=1;exitDx=0;exitDy=0;entryX=0.5;entryY=0;entryDx=0;entryDy=0;" edge="1" parent="1" source="QCXTudB9rJTe6QyoqShM-12" target="QCXTudB9rJTe6QyoqShM-15">
          <mxGeometry relative="1" as="geometry" />
        </mxCell>
        <mxCell id="QCXTudB9rJTe6QyoqShM-28" style="edgeStyle=orthogonalEdgeStyle;rounded=0;orthogonalLoop=1;jettySize=auto;html=1;exitX=0.5;exitY=1;exitDx=0;exitDy=0;entryX=0.5;entryY=0;entryDx=0;entryDy=0;" edge="1" parent="1" source="QCXTudB9rJTe6QyoqShM-12" target="QCXTudB9rJTe6QyoqShM-14">
          <mxGeometry relative="1" as="geometry" />
        </mxCell>
        <mxCell id="QCXTudB9rJTe6QyoqShM-12" value="Deployed Rope" style="shape=parallelogram;perimeter=parallelogramPerimeter;whiteSpace=wrap;html=1;fixedSize=1;" vertex="1" parent="1">
          <mxGeometry x="-1379" y="925" width="276" height="60" as="geometry" />
        </mxCell>
        <mxCell id="QCXTudB9rJTe6QyoqShM-26" style="edgeStyle=orthogonalEdgeStyle;rounded=0;orthogonalLoop=1;jettySize=auto;html=1;exitX=0.5;exitY=1;exitDx=0;exitDy=0;entryX=0.5;entryY=0;entryDx=0;entryDy=0;" edge="1" parent="1" source="QCXTudB9rJTe6QyoqShM-14" target="QCXTudB9rJTe6QyoqShM-22">
          <mxGeometry relative="1" as="geometry" />
        </mxCell>
        <mxCell id="QCXTudB9rJTe6QyoqShM-14" value="&lt;div&gt;Rope Length: X&lt;/div&gt;&lt;br&gt;(no statement)" style="ellipse;whiteSpace=wrap;html=1;" vertex="1" parent="1">
          <mxGeometry x="-1479.75" y="1025" width="200" height="80" as="geometry" />
        </mxCell>
        <mxCell id="QCXTudB9rJTe6QyoqShM-29" style="edgeStyle=orthogonalEdgeStyle;rounded=0;orthogonalLoop=1;jettySize=auto;html=1;exitX=0.5;exitY=1;exitDx=0;exitDy=0;entryX=0.5;entryY=0;entryDx=0;entryDy=0;" edge="1" parent="1" source="QCXTudB9rJTe6QyoqShM-15" target="QCXTudB9rJTe6QyoqShM-16">
          <mxGeometry relative="1" as="geometry" />
        </mxCell>
        <mxCell id="QCXTudB9rJTe6QyoqShM-15" value="Cargo: X&lt;br&gt;(no statement)" style="ellipse;whiteSpace=wrap;html=1;" vertex="1" parent="1">
          <mxGeometry x="-1199.75" y="1025" width="200" height="80" as="geometry" />
        </mxCell>
        <mxCell id="QCXTudB9rJTe6QyoqShM-16" value="&lt;div&gt;Detatch&lt;/div&gt;" style="ellipse;whiteSpace=wrap;html=1;" vertex="1" parent="1">
          <mxGeometry x="-1199.75" y="1145" width="200" height="80" as="geometry" />
        </mxCell>
        <mxCell id="QCXTudB9rJTe6QyoqShM-22" value="&lt;div&gt;Set Length to x&lt;/div&gt;" style="ellipse;whiteSpace=wrap;html=1;" vertex="1" parent="1">
          <mxGeometry x="-1480.25" y="1145" width="200" height="80" as="geometry" />
        </mxCell>
        <mxCell id="QCXTudB9rJTe6QyoqShM-37" style="edgeStyle=orthogonalEdgeStyle;rounded=0;orthogonalLoop=1;jettySize=auto;html=1;exitX=0.5;exitY=1;exitDx=0;exitDy=0;entryX=0.5;entryY=0;entryDx=0;entryDy=0;" edge="1" parent="1" source="QCXTudB9rJTe6QyoqShM-30" target="QCXTudB9rJTe6QyoqShM-36">
          <mxGeometry relative="1" as="geometry" />
        </mxCell>
        <mxCell id="QCXTudB9rJTe6QyoqShM-30" value="Deploy&lt;br&gt;(default length 20m)" style="ellipse;whiteSpace=wrap;html=1;" vertex="1" parent="1">
          <mxGeometry x="-2140" y="1025" width="200" height="80" as="geometry" />
        </mxCell>
        <mxCell id="QCXTudB9rJTe6QyoqShM-32" value="Cannot Deploy&lt;br&gt;(hint with reason)" style="ellipse;whiteSpace=wrap;html=1;" vertex="1" parent="1">
          <mxGeometry x="-1900" y="1025" width="200" height="80" as="geometry" />
        </mxCell>
        <mxCell id="QCXTudB9rJTe6QyoqShM-34" value="..." style="ellipse;whiteSpace=wrap;html=1;opacity=20;" vertex="1" parent="1">
          <mxGeometry x="-2139.5" y="1185" width="200" height="80" as="geometry" />
        </mxCell>
        <mxCell id="QCXTudB9rJTe6QyoqShM-35" value="..." style="ellipse;whiteSpace=wrap;html=1;opacity=40;" vertex="1" parent="1">
          <mxGeometry x="-2139.5" y="1165" width="200" height="80" as="geometry" />
        </mxCell>
        <mxCell id="QCXTudB9rJTe6QyoqShM-36" value="&lt;div&gt;Set Length to x&lt;/div&gt;" style="ellipse;whiteSpace=wrap;html=1;" vertex="1" parent="1">
          <mxGeometry x="-2140.5" y="1145" width="200" height="80" as="geometry" />
        </mxCell>
        <mxCell id="QCXTudB9rJTe6QyoqShM-42" style="edgeStyle=orthogonalEdgeStyle;rounded=0;orthogonalLoop=1;jettySize=auto;html=1;exitX=0.5;exitY=1;exitDx=0;exitDy=0;entryX=0.5;entryY=0;entryDx=0;entryDy=0;" edge="1" parent="1" source="QCXTudB9rJTe6QyoqShM-39" target="QCXTudB9rJTe6QyoqShM-41">
          <mxGeometry relative="1" as="geometry" />
        </mxCell>
        <mxCell id="QCXTudB9rJTe6QyoqShM-46" style="edgeStyle=orthogonalEdgeStyle;rounded=0;orthogonalLoop=1;jettySize=auto;html=1;exitX=0.5;exitY=1;exitDx=0;exitDy=0;" edge="1" parent="1" source="QCXTudB9rJTe6QyoqShM-39" target="QCXTudB9rJTe6QyoqShM-43">
          <mxGeometry relative="1" as="geometry" />
        </mxCell>
        <mxCell id="QCXTudB9rJTe6QyoqShM-39" value="&lt;div&gt;Shortcuts&lt;/div&gt;" style="shape=parallelogram;perimeter=parallelogramPerimeter;whiteSpace=wrap;html=1;fixedSize=1;" vertex="1" parent="1">
          <mxGeometry x="-1820" y="480" width="276" height="60" as="geometry" />
        </mxCell>
        <mxCell id="QCXTudB9rJTe6QyoqShM-41" value="&lt;div&gt;Deploy All&lt;/div&gt;&lt;div&gt;Only visible if nothing is deployed&lt;br&gt;and more then 1 hook&lt;/div&gt;" style="ellipse;whiteSpace=wrap;html=1;" vertex="1" parent="1">
          <mxGeometry x="-1787" y="600" width="210" height="130" as="geometry" />
        </mxCell>
        <mxCell id="QCXTudB9rJTe6QyoqShM-43" value="Retract All&lt;br&gt;Only when all deployed hooks are without cargo" style="ellipse;whiteSpace=wrap;html=1;" vertex="1" parent="1">
          <mxGeometry x="-2060" y="600" width="210" height="130" as="geometry" />
        </mxCell>
        <mxCell id="QCXTudB9rJTe6QyoqShM-44" value="&quot;damaged&quot;&lt;br&gt;Boolean&lt;br&gt;(later)" style="whiteSpace=wrap;html=1;rounded=1;" vertex="1" parent="1">
          <mxGeometry x="-570" y="680" width="90" height="90" as="geometry" />
        </mxCell>
      </root>
    </mxGraphModel>
  </diagram>
</mxfile>
